<?xml version="1.0" standalone="no"?>
<!DOCTYPE svg PUBLIC "-//W3C//DTD SVG 20010904//EN"
 "http://www.w3.org/TR/2001/REC-SVG-20010904/DTD/svg10.dtd">
<svg version="1.0" xmlns="http://www.w3.org/2000/svg"
 width="3000.000000pt" height="3000.000000pt" viewBox="0 0 3000.000000 3000.000000"
 preserveAspectRatio="xMidYMid meet">
<metadata>
Created by potrace 1.16, written by Peter Selinger 2001-2019
</metadata>
<g transform="translate(0.000000,3000.000000) scale(0.100000,-0.100000)"
fill="#000000" stroke="none">
<path d="M15560 28562 c-19 -8 -38 -19 -42 -26 -4 -6 -8 -6 -8 -1 0 6 -3 6 -8
-1 -4 -5 -23 -20 -42 -32 -20 -11 -47 -30 -59 -42 -13 -11 -27 -20 -30 -20 -6
0 -106 -97 -126 -122 -6 -7 -22 -29 -35 -48 -14 -19 -28 -37 -31 -40 -3 -3
-19 -27 -34 -55 -16 -27 -33 -51 -37 -53 -4 -2 -8 -11 -8 -21 0 -9 -6 -25 -14
-36 -7 -11 -14 -24 -15 -30 -1 -5 -10 -39 -21 -75 -41 -141 -53 -237 -46 -380
9 -172 9 -175 36 -300 23 -106 35 -138 118 -290 86 -160 195 -303 233 -308 8
-1 44 -5 82 -8 l68 -6 -4 521 -4 521 34 57 c19 32 32 51 30 43 -3 -9 -1 -38 3
-66 5 -28 11 -80 14 -115 3 -35 8 -77 10 -94 2 -16 7 -59 11 -95 4 -36 8 -76
10 -90 2 -14 6 -54 10 -90 4 -36 9 -78 11 -95 2 -16 6 -57 9 -90 3 -33 8 -76
10 -95 2 -19 6 -59 10 -87 3 -29 7 -77 11 -105 8 -83 61 -126 125 -104 42 15
65 35 101 91 14 22 51 66 82 98 31 32 63 72 72 90 10 18 28 46 40 63 13 17 24
36 24 42 0 6 7 23 14 39 13 24 23 49 31 73 48 151 56 194 59 322 3 90 -15 273
-33 338 -29 106 -43 150 -61 195 -5 11 -22 57 -39 102 -38 101 -62 154 -78
171 -7 7 -13 17 -13 22 0 4 -22 30 -50 56 -95 94 -104 100 -266 176 -34 16
-116 16 -154 0z"/>
<path d="M20075 28235 c-5 -2 -64 -20 -130 -40 -66 -20 -123 -42 -126 -47 -4
-6 -12 -7 -19 -3 -8 5 -11 4 -6 -3 4 -6 -14 -17 -44 -27 -27 -9 -50 -21 -50
-26 0 -5 -18 -16 -40 -25 -22 -9 -40 -19 -40 -24 0 -4 -18 -15 -40 -25 -22
-10 -40 -21 -40 -25 0 -4 -11 -12 -24 -18 -13 -6 -39 -24 -57 -41 -19 -17 -54
-49 -78 -71 -24 -22 -48 -40 -53 -40 -4 0 -8 -6 -8 -14 0 -8 -9 -18 -20 -21
-11 -3 -20 -12 -20 -18 0 -7 -21 -31 -45 -55 -25 -24 -45 -48 -45 -53 0 -5 -4
-9 -10 -9 -5 0 -10 -6 -10 -14 0 -7 -16 -30 -35 -50 -19 -21 -35 -46 -35 -57
0 -10 -4 -19 -9 -19 -9 0 -16 -11 -59 -95 -8 -16 -18 -32 -22 -35 -3 -3 -17
-34 -30 -70 -13 -36 -27 -67 -30 -70 -4 -3 -10 -23 -14 -45 -4 -22 -13 -47
-20 -55 -7 -8 -18 -42 -25 -75 -6 -33 -16 -61 -21 -63 -6 -2 -7 -15 -4 -28 4
-15 2 -24 -6 -24 -7 0 -9 -8 -5 -20 4 -12 2 -20 -6 -20 -8 0 -9 -10 -5 -30 3
-18 2 -29 -4 -25 -5 3 -9 -15 -8 -42 0 -27 -5 -79 -12 -118 -6 -38 -13 -99
-15 -135 -2 -36 -6 -74 -10 -85 -4 -12 -3 -15 2 -8 4 6 8 -61 8 -152 0 -90 3
-161 7 -159 4 3 5 -1 2 -9 -6 -18 113 -441 126 -445 5 -2 6 -10 3 -18 -3 -8 0
-14 6 -14 7 0 11 -6 10 -12 -1 -7 7 -33 18 -58 11 -25 23 -57 27 -72 3 -16 11
-28 17 -28 6 0 7 -5 3 -11 -3 -6 -2 -14 3 -18 6 -3 22 -31 36 -61 37 -76 98
-154 125 -158 12 -2 22 -7 22 -12 0 -5 14 -11 30 -15 17 -4 28 -11 24 -16 -3
-5 0 -9 5 -9 6 0 11 5 11 11 0 6 7 4 15 -5 17 -16 117 -32 135 -21 6 4 9 17 6
30 -4 14 -1 26 7 29 9 5 9 7 -1 12 -6 3 -9 10 -6 16 4 6 10 24 14 42 4 17 11
40 16 50 5 14 4 17 -4 12 -8 -5 -10 -2 -6 8 3 9 10 16 15 16 5 0 9 7 9 16 0 8
-4 12 -10 9 -16 -10 -12 2 7 20 12 13 13 19 4 24 -9 6 -8 12 5 25 12 12 14 20
6 25 -14 8 1 80 20 93 9 6 9 11 2 14 -7 3 -5 33 8 97 11 50 21 102 23 114 1
12 6 34 9 50 3 15 26 136 51 268 25 132 54 283 65 335 10 52 31 159 46 238 28
142 28 143 73 190 25 27 54 59 64 73 15 19 17 20 12 4 -6 -20 -18 -159 -18
-222 0 -18 -4 -33 -9 -33 -5 0 -6 -10 -3 -22 3 -13 1 -45 -4 -73 -6 -31 -6
-51 0 -53 5 -2 7 -8 4 -12 -3 -5 -8 -44 -11 -87 -2 -43 -8 -103 -13 -133 -4
-30 -8 -68 -8 -85 -1 -16 -4 -70 -8 -120 -4 -49 -8 -103 -9 -120 0 -16 -5 -34
-11 -38 -7 -6 -6 -10 1 -13 8 -4 8 -22 -2 -67 -8 -38 -9 -66 -3 -73 5 -6 6
-13 3 -16 -5 -5 -23 -179 -29 -278 -2 -25 -6 -85 -10 -135 -4 -49 -7 -103 -8
-120 -1 -16 -6 -34 -12 -38 -7 -6 -6 -10 2 -13 7 -3 10 -11 7 -19 -8 -20 89
-111 127 -119 40 -8 99 8 129 34 13 11 28 20 35 20 6 0 21 11 33 25 12 14 26
25 32 25 5 0 10 5 10 11 0 12 66 79 78 79 5 0 18 9 30 21 12 11 27 17 34 13 7
-4 8 -3 4 4 -4 7 -3 12 2 12 5 0 20 10 34 23 14 12 38 31 53 42 16 11 45 38
64 59 20 22 53 58 75 80 21 22 50 57 63 78 14 21 30 38 34 38 5 0 9 7 9 15 0
8 4 15 9 15 5 0 11 10 15 23 3 12 14 32 26 44 11 12 20 29 20 38 0 8 4 15 9
15 5 0 13 10 17 23 4 12 9 24 13 27 14 12 41 70 41 89 0 12 6 24 14 27 7 3 16
23 20 45 3 21 10 39 15 39 5 0 12 17 16 38 4 20 11 42 16 48 9 11 36 131 65
289 8 44 17 134 21 200 7 152 7 134 -1 245 -11 157 -14 183 -25 229 -5 25 -8
48 -6 52 3 3 -4 45 -14 93 -11 47 -17 95 -14 106 3 11 1 20 -3 20 -5 0 -10 16
-11 34 -4 86 -107 380 -142 406 -3 3 -18 21 -33 40 -14 19 -44 54 -65 77 -21
23 -49 56 -63 72 -14 17 -31 31 -37 31 -7 0 -13 5 -13 10 0 6 -6 10 -13 10 -7
0 -28 16 -47 35 -19 19 -40 35 -47 35 -7 0 -30 15 -50 34 -21 18 -54 37 -73
41 -19 4 -38 13 -42 19 -6 8 -8 8 -8 0 0 -9 -11 -9 -37 -3 -40 9 -51 10 -68 4z"/>
<path d="M8904 27435 c-22 -6 -48 -11 -57 -9 -9 1 -17 -4 -17 -12 0 -9 -4 -13
-9 -9 -5 3 -12 1 -16 -5 -4 -6 -11 -8 -16 -5 -5 4 -9 1 -9 -4 0 -6 -6 -11 -14
-11 -7 0 -19 -7 -26 -15 -7 -9 -15 -13 -18 -10 -3 3 -18 -7 -34 -22 -15 -15
-28 -23 -28 -19 0 4 -12 -6 -26 -21 -14 -15 -30 -28 -35 -28 -5 0 -13 -5 -17
-11 -4 -6 -15 -13 -24 -17 -10 -3 -18 -14 -18 -22 0 -9 -4 -14 -9 -10 -6 3
-15 -4 -21 -15 -6 -11 -15 -18 -20 -15 -5 3 -16 -10 -26 -30 -9 -19 -19 -33
-24 -30 -8 5 -50 -49 -50 -65 0 -5 -4 -10 -10 -10 -5 0 -10 -5 -10 -10 0 -6
-29 -51 -66 -101 -36 -50 -63 -94 -60 -97 3 -2 -3 -17 -14 -32 -11 -16 -20
-35 -20 -43 0 -9 -5 -19 -10 -22 -6 -4 -10 -12 -9 -18 3 -15 -11 -69 -21 -82
-4 -5 -11 -31 -14 -57 -4 -26 -11 -50 -15 -52 -4 -3 -8 -18 -9 -33 -1 -15 -4
-44 -8 -63 -13 -74 -15 -328 -4 -420 6 -52 11 -104 11 -115 -2 -57 61 -288 86
-313 7 -7 13 -19 13 -25 0 -28 183 -355 222 -397 10 -11 18 -21 18 -24 0 -19
113 -110 123 -99 4 3 13 0 21 -6 8 -7 23 -12 33 -11 10 1 20 1 23 0 3 -1 24
-3 47 -4 38 -2 43 0 48 23 5 27 11 296 21 935 l6 380 39 55 c27 37 39 48 39
35 1 -10 3 -41 5 -69 5 -55 13 -155 20 -255 12 -150 15 -198 20 -245 3 -27 8
-79 11 -115 3 -36 7 -85 9 -110 2 -25 7 -81 10 -125 4 -44 8 -91 10 -105 4
-30 14 -145 19 -215 7 -89 18 -125 48 -155 16 -17 34 -27 39 -24 6 3 15 1 22
-4 7 -5 21 -7 32 -5 11 2 26 5 33 5 6 1 12 5 12 10 0 4 7 8 15 8 8 0 15 7 15
15 0 8 4 14 8 13 11 -4 89 77 96 99 7 22 53 73 66 73 6 0 10 7 10 16 0 9 8 18
18 21 15 4 67 72 97 128 6 11 26 40 43 64 18 24 32 50 32 58 0 8 9 26 20 40
11 14 20 32 20 39 0 8 4 22 9 32 12 21 24 54 26 67 1 6 5 17 8 25 13 32 26 94
22 101 -3 4 -1 9 4 11 5 1 11 21 13 43 2 22 7 45 10 50 10 18 15 191 9 320 -6
119 -54 335 -108 490 -14 39 -33 97 -44 130 -11 33 -24 69 -29 80 -5 11 -12
30 -15 43 -4 12 -11 22 -16 22 -5 0 -9 7 -9 17 0 20 -58 113 -71 113 -5 0 -9
6 -9 13 -1 6 -17 26 -37 42 -19 17 -47 42 -62 56 -35 35 -147 110 -154 103 -3
-4 -21 6 -40 20 -18 14 -36 23 -40 20 -3 -3 -18 2 -33 12 -15 10 -37 19 -48
19 -12 0 -25 3 -31 6 -5 4 -28 1 -51 -6z"/>
<path d="M10940 27320 c-91 -16 -99 -19 -138 -55 -45 -40 -99 -151 -138 -280
-36 -121 -45 -331 -19 -456 45 -224 149 -415 343 -629 82 -90 172 -153 342
-239 150 -77 232 -105 288 -97 49 7 121 41 128 61 4 8 -113 199 -275 451
l-282 437 3 55 3 55 340 -424 c365 -455 368 -458 431 -428 39 19 64 73 69 152
2 36 9 96 16 133 16 94 7 279 -20 381 -71 274 -233 492 -531 714 -137 103
-187 132 -260 154 -67 19 -226 27 -300 15z"/>
<path d="M14249 26966 c-2 -2 -22 -6 -44 -9 -50 -7 -197 -47 -210 -57 -5 -4
-26 -11 -45 -15 -19 -4 -42 -13 -50 -19 -8 -7 -40 -23 -70 -36 -30 -12 -59
-29 -63 -36 -4 -8 -17 -14 -27 -14 -11 0 -20 -4 -20 -9 0 -5 -12 -14 -27 -19
-16 -6 -45 -27 -67 -46 -21 -20 -42 -36 -47 -36 -21 0 -260 -256 -315 -336
-76 -111 -135 -204 -129 -204 3 0 -10 -30 -29 -67 -45 -89 -77 -171 -105 -263
-12 -41 -26 -84 -31 -95 -16 -36 -52 -186 -51 -210 0 -2 -6 -22 -13 -43 -7
-20 -17 -67 -21 -102 -4 -36 -9 -75 -11 -87 -1 -12 -5 -26 -8 -32 -16 -25 -16
-183 -1 -263 9 -46 18 -99 21 -118 6 -39 41 -183 74 -305 12 -44 26 -93 30
-110 20 -82 142 -355 175 -392 5 -6 24 -30 40 -53 54 -75 165 -149 165 -110 0
11 0 12 12 60 4 19 11 51 14 70 10 61 12 74 28 135 8 33 18 80 21 105 3 25 13
66 21 91 15 49 18 60 34 154 6 33 17 76 24 95 8 20 17 60 21 90 4 30 9 58 11
61 2 3 6 21 9 39 3 19 10 39 15 45 4 5 11 30 15 55 4 25 13 71 21 102 9 32 17
66 19 75 2 10 8 30 14 46 6 15 13 38 15 50 2 12 11 53 21 90 9 37 18 73 19 80
2 7 7 23 13 37 6 14 25 77 43 140 18 63 41 135 53 160 11 25 21 50 22 56 2 7
14 35 29 63 14 28 23 51 21 51 -6 0 108 222 129 252 15 21 16 19 16 -50 0 -40
-4 -103 -10 -140 -5 -37 -11 -87 -14 -112 -3 -25 -10 -72 -16 -105 -20 -114
-39 -230 -45 -284 -4 -30 -11 -66 -17 -80 -5 -14 -9 -27 -8 -29 4 -5 -12 -128
-20 -162 -5 -19 -11 -66 -15 -105 -4 -38 -8 -72 -10 -76 -2 -3 -7 -34 -10 -70
-4 -35 -8 -70 -11 -78 -12 -36 -34 -445 -33 -611 0 -102 0 -192 0 -200 0 -8 5
-36 10 -61 12 -55 17 -80 18 -94 4 -35 18 -37 77 -11 33 14 73 33 89 42 17 10
56 31 88 47 31 17 57 34 57 39 0 4 4 8 10 8 15 0 118 81 175 137 121 120 190
213 322 438 154 264 233 436 233 509 0 25 4 47 8 50 5 3 10 30 11 60 1 30 4
66 7 78 11 46 24 277 25 413 0 151 -4 199 -28 345 -8 52 -16 104 -18 115 -7
47 -69 215 -106 289 -49 96 -136 241 -155 257 -8 6 -14 17 -14 24 0 8 -3 15
-7 17 -5 2 -26 25 -48 53 -115 142 -212 220 -288 230 -19 3 -36 3 -38 1z"/>
<path d="M22632 26905 c-40 -12 -78 -28 -86 -34 -7 -6 -22 -8 -31 -4 -13 5
-16 3 -10 -6 5 -10 2 -11 -14 -6 -13 4 -21 2 -21 -5 0 -7 -7 -10 -15 -6 -8 3
-15 2 -15 -3 0 -8 -38 -24 -52 -22 -5 1 -8 -3 -8 -8 0 -5 -20 -17 -45 -27 -25
-9 -45 -20 -45 -24 0 -4 -19 -15 -42 -26 -40 -17 -137 -79 -148 -94 -3 -4 -13
-11 -22 -16 -9 -5 -46 -37 -81 -71 -36 -34 -68 -59 -71 -56 -3 4 -6 2 -6 -4 0
-5 -27 -38 -60 -72 -33 -35 -60 -67 -60 -72 0 -14 -53 -65 -63 -61 -5 2 -7 -4
-4 -12 3 -8 -11 -37 -33 -65 -21 -29 -43 -65 -50 -81 -7 -16 -16 -27 -21 -24
-5 3 -9 -5 -9 -16 0 -12 -7 -34 -15 -48 -8 -15 -24 -49 -35 -77 -12 -27 -30
-68 -40 -90 -10 -22 -24 -68 -31 -103 -6 -35 -18 -70 -26 -78 -8 -8 -12 -21
-9 -29 3 -8 1 -17 -3 -19 -5 -3 -12 -34 -15 -68 -4 -35 -14 -94 -22 -133 -8
-38 -17 -99 -19 -135 -3 -36 -7 -101 -11 -145 -7 -101 -8 -184 -2 -191 3 -2 2
-22 -2 -44 -4 -22 -4 -37 0 -35 4 2 7 -8 7 -23 -1 -32 9 -87 17 -100 3 -6 8
-25 11 -43 2 -19 13 -66 24 -106 10 -40 16 -74 13 -77 -2 -3 0 -12 7 -19 19
-23 51 -127 44 -144 -4 -10 -2 -14 4 -10 9 6 28 -41 38 -94 2 -9 31 -73 65
-142 40 -81 70 -129 86 -137 13 -7 21 -18 17 -23 -3 -6 -1 -7 5 -3 6 3 16 0
24 -7 7 -8 26 -17 41 -21 15 -3 25 -11 22 -16 -3 -6 -1 -10 4 -10 6 0 11 6 11
13 0 8 3 9 8 1 12 -19 45 -31 93 -33 l47 -2 0 39 c0 22 5 48 11 59 6 10 20 70
31 133 11 63 27 135 35 160 8 25 24 95 36 155 12 61 24 115 29 120 4 6 15 53
24 105 10 52 26 126 37 165 21 76 37 146 148 645 l21 95 66 62 c36 34 63 54
59 45 -4 -9 -11 -66 -16 -127 -6 -60 -15 -135 -22 -165 -6 -30 -12 -73 -13
-95 -3 -95 -14 -196 -22 -213 -5 -9 -13 -55 -16 -102 -4 -47 -9 -101 -11 -120
-2 -19 -8 -78 -13 -131 -5 -53 -12 -101 -16 -107 -6 -10 -13 -71 -21 -200 -3
-41 -7 -78 -10 -83 -6 -9 -26 -159 -30 -229 -1 -25 -6 -79 -10 -120 l-8 -75
50 -52 c44 -45 57 -53 99 -58 35 -4 56 -1 74 9 14 9 39 22 55 30 17 8 42 26
56 40 15 14 30 22 34 18 4 -4 5 -2 3 3 -4 13 52 75 67 75 7 0 22 9 35 20 13
11 26 20 30 20 4 0 16 8 27 18 11 9 35 28 53 42 19 14 47 36 64 50 47 37 176
168 176 178 0 5 16 25 35 45 19 20 35 41 35 48 0 6 11 22 25 35 14 13 25 30
25 39 0 8 4 15 10 15 5 0 12 11 16 25 3 14 10 25 14 25 5 0 18 21 30 48 12 26
35 74 51 107 16 33 29 64 29 68 0 5 10 32 23 60 13 29 32 93 42 142 10 50 25
105 32 124 8 18 16 68 18 110 2 42 8 108 13 146 12 92 7 377 -7 439 -7 26 -9
57 -5 68 3 11 2 18 -2 15 -8 -4 -11 19 -17 151 -1 17 -5 32 -9 32 -4 0 -7 8
-6 18 5 41 -27 201 -53 262 -6 14 -17 39 -24 55 -7 17 -19 46 -26 65 -7 19
-16 37 -19 40 -3 3 -17 21 -30 40 -27 40 -66 88 -116 143 -19 21 -34 42 -34
48 0 5 -7 9 -15 9 -8 0 -38 23 -67 50 -29 28 -56 50 -61 50 -4 0 -20 12 -35
26 -34 32 -60 43 -147 60 -88 18 -95 17 -183 -11z"/>
<path d="M16591 26810 c-11 -3 -29 -12 -38 -20 -10 -9 -21 -16 -26 -18 -4 -1
-20 -8 -36 -16 -16 -9 -31 -13 -35 -11 -3 3 -4 2 -1 -1 2 -4 -7 -15 -20 -26
-14 -10 -24 -25 -22 -31 1 -7 -4 -11 -10 -9 -7 1 -13 -5 -13 -13 0 -8 -4 -15
-10 -15 -5 0 -10 -4 -10 -10 0 -15 -33 -50 -48 -50 -7 0 -10 -4 -7 -10 3 -5 1
-10 -5 -10 -6 0 -15 -10 -20 -22 -15 -34 -33 -62 -47 -71 -7 -4 -13 -17 -13
-27 0 -11 -5 -19 -11 -17 -6 1 -13 -7 -15 -17 -1 -10 -9 -23 -16 -27 -7 -5
-13 -14 -14 -21 -3 -34 -5 -39 -13 -34 -5 3 -12 -10 -16 -30 -4 -24 -11 -34
-19 -31 -10 4 -15 -8 -20 -40 -3 -25 -13 -51 -21 -57 -9 -6 -17 -23 -19 -36
-2 -14 -6 -32 -9 -40 -3 -8 -11 -37 -17 -65 -6 -27 -12 -57 -15 -65 -2 -8 -9
-35 -15 -60 -6 -25 -15 -54 -21 -66 -6 -11 -9 -24 -7 -30 1 -5 -3 -24 -11 -42
-10 -23 -11 -39 -4 -55 7 -16 6 -31 -6 -55 -13 -27 -13 -35 -2 -41 8 -5 10
-14 6 -22 -11 -17 -14 -119 -4 -125 5 -2 5 -15 0 -27 -8 -21 -7 -31 6 -67 3
-8 6 -42 7 -75 0 -33 4 -64 7 -70 4 -5 10 -31 13 -57 4 -27 11 -48 15 -48 4 0
5 -16 3 -35 -3 -22 0 -35 7 -35 7 0 9 -9 5 -24 -4 -16 -1 -25 11 -30 11 -4 15
-12 11 -22 -3 -9 2 -32 11 -52 10 -21 16 -45 15 -55 -2 -9 4 -20 13 -23 9 -4
14 -13 11 -20 -3 -7 -1 -16 5 -19 5 -4 7 -11 4 -16 -4 -5 1 -12 10 -15 9 -4
15 -14 13 -23 -3 -17 50 -132 66 -143 5 -3 11 -17 13 -30 2 -13 9 -27 16 -33
7 -5 11 -18 9 -27 -2 -9 12 -39 32 -66 19 -27 47 -73 61 -103 15 -29 40 -66
56 -81 16 -16 28 -32 26 -36 -1 -4 2 -7 6 -7 5 0 15 -12 23 -27 8 -16 19 -28
24 -28 5 0 39 -30 75 -67 98 -102 145 -146 145 -136 0 3 25 -19 55 -49 30 -31
56 -53 59 -51 2 2 7 -5 11 -16 3 -12 11 -19 16 -16 5 4 12 -1 15 -9 3 -9 10
-13 15 -10 5 3 9 0 9 -6 0 -6 11 -15 25 -20 14 -5 28 -16 31 -25 3 -8 10 -12
15 -9 5 3 9 1 9 -4 0 -5 18 -17 40 -28 22 -10 40 -22 40 -26 0 -5 7 -8 15 -8
8 0 15 -5 15 -10 0 -6 3 -9 8 -9 18 3 33 -2 28 -10 -3 -4 7 -7 21 -5 15 1 36
-2 46 -8 14 -7 17 -7 13 0 -4 7 12 10 49 7 30 -2 55 0 55 5 0 4 9 6 20 3 11
-3 20 -1 20 5 0 6 9 9 20 7 12 -2 23 2 27 10 3 8 9 12 14 9 5 -3 9 0 9 6 0 6
5 8 12 4 7 -4 8 -3 4 4 -4 6 -1 21 6 32 8 13 9 23 3 28 -5 4 -12 16 -13 27 -2
11 -7 25 -12 30 -7 9 -18 49 -26 93 -1 7 -12 31 -24 54 -11 22 -19 47 -16 55
3 8 -1 24 -9 37 -9 13 -13 30 -10 38 3 8 -1 21 -10 28 -8 7 -15 23 -15 36 0
12 -4 26 -10 29 -5 3 -10 17 -10 31 0 15 -4 23 -10 19 -7 -4 -9 2 -5 18 5 17
2 26 -10 30 -11 5 -14 14 -9 33 5 19 4 25 -5 20 -7 -5 -11 3 -11 23 0 16 -4
33 -10 36 -5 3 -10 17 -10 31 0 15 -6 24 -15 24 -13 0 -13 3 -3 21 11 17 10
22 -4 33 -10 7 -15 16 -12 19 3 3 -1 16 -9 29 -9 12 -17 37 -18 53 -2 17 -10
38 -18 48 -9 11 -10 17 -3 17 7 0 12 5 12 11 0 5 -4 8 -9 5 -5 -4 -13 8 -16
26 -4 18 -11 39 -16 48 -28 54 -37 80 -26 80 9 0 9 2 0 8 -7 4 -14 18 -16 30
-2 12 -6 25 -10 28 -4 4 -7 20 -7 36 0 15 -4 28 -10 28 -5 0 -10 14 -10 30 0
17 -3 29 -7 29 -20 -3 -24 2 -12 17 11 14 11 18 -5 29 -9 7 -16 19 -15 27 2
14 0 22 -32 103 -10 28 -19 60 -19 73 0 12 -4 22 -10 22 -5 0 -10 8 -10 18 0
10 -5 23 -11 29 -7 7 -7 23 2 54 7 24 14 51 15 60 0 9 5 22 9 29 9 14 23 -5
30 -40 2 -11 11 -27 19 -36 9 -8 16 -21 16 -29 0 -7 6 -16 13 -18 9 -4 8 -6
-2 -6 -11 -1 -10 -6 3 -26 9 -14 24 -37 34 -52 9 -15 11 -24 5 -20 -7 5 -13 4
-13 -2 0 -5 6 -14 13 -18 20 -13 49 -73 43 -89 -3 -8 1 -17 9 -20 8 -4 15 -12
15 -19 0 -7 6 -18 14 -24 8 -7 12 -21 9 -31 -4 -13 3 -27 18 -40 13 -10 20
-19 15 -20 -5 0 -3 -7 4 -15 7 -8 10 -15 6 -15 -3 0 5 -17 18 -39 14 -22 23
-47 20 -58 -3 -11 2 -25 10 -32 9 -8 16 -19 16 -26 0 -7 7 -15 15 -19 9 -3 12
-12 8 -22 -4 -10 0 -22 11 -29 9 -7 18 -24 20 -38 1 -13 15 -45 30 -71 15 -25
26 -52 24 -59 -2 -6 8 -28 22 -47 13 -19 23 -45 22 -57 -2 -16 2 -23 12 -23
15 0 20 -11 17 -37 -1 -7 3 -13 9 -13 6 0 10 -6 8 -12 -1 -7 9 -31 23 -53 14
-22 29 -55 32 -74 4 -19 14 -42 23 -52 8 -9 16 -26 17 -38 1 -11 6 -21 12 -21
6 0 11 -10 12 -22 1 -11 7 -24 14 -28 6 -4 8 -13 5 -19 -4 -6 4 -26 18 -43 13
-18 28 -46 32 -63 13 -55 47 -105 72 -105 12 0 22 -6 22 -13 0 -18 55 -38 69
-24 8 8 14 8 23 -1 12 -12 40 -2 66 25 8 7 19 10 25 6 7 -3 9 -3 6 1 -4 4 8
22 26 39 21 21 34 46 38 71 3 21 13 46 22 56 16 18 41 88 36 104 -3 12 19 56
37 74 7 8 10 17 7 22 -6 10 23 80 33 80 5 0 9 6 9 13 1 18 41 175 57 227 19
57 28 104 32 155 12 159 13 175 1 175 -9 0 -9 2 -1 8 13 8 13 189 1 209 -4 7
-3 22 3 33 9 16 8 20 -4 20 -10 0 -13 6 -10 15 4 9 1 29 -6 46 -9 21 -10 33
-2 41 7 7 5 16 -8 31 -11 11 -17 24 -14 28 2 4 0 11 -6 14 -8 5 -8 11 0 20 9
10 8 20 -3 37 -8 13 -18 43 -22 67 -4 25 -14 51 -22 59 -8 9 -11 23 -7 36 4
11 3 18 -1 14 -8 -8 -35 36 -35 57 0 7 -8 23 -19 36 -10 13 -18 26 -18 29 2
29 -18 82 -36 95 -12 8 -22 19 -21 23 2 17 -9 41 -17 36 -5 -3 -9 -1 -9 4 0 5
-11 26 -25 46 -13 20 -22 36 -18 36 3 0 -1 8 -9 18 -9 9 -19 28 -23 42 -8 24
-35 64 -122 175 -24 30 -43 59 -43 63 0 5 -11 15 -25 22 -13 7 -23 16 -22 19
3 10 -83 121 -93 121 -6 0 -10 6 -10 14 0 8 -8 21 -18 28 -9 7 -26 26 -35 41
-10 16 -21 26 -24 23 -10 -9 -34 24 -27 36 4 7 4 10 0 7 -7 -7 -43 20 -79 59
-11 12 -27 22 -34 22 -7 0 -13 5 -13 10 0 6 -3 9 -7 9 -19 -3 -34 2 -29 9 2 4
-5 9 -17 9 -12 1 -27 9 -33 18 -7 9 -21 17 -32 20 -11 2 -29 8 -39 13 -10 5
-24 7 -30 5 -7 -3 -13 0 -13 5 0 6 -17 16 -37 23 -21 6 -43 16 -49 21 -7 5
-16 8 -20 7 -23 -4 -65 2 -61 9 3 4 -26 8 -63 9 -38 1 -78 7 -90 13 -16 9 -25
8 -36 -1 -11 -9 -18 -9 -22 -2 -7 10 -93 12 -131 3z"/>
<path d="M4570 24732 c-66 -9 -215 -166 -274 -287 -37 -78 -45 -105 -52 -180
-9 -102 -5 -350 6 -423 6 -35 8 -67 5 -72 -3 -5 -1 -11 5 -15 5 -3 10 -23 10
-43 0 -20 7 -50 15 -66 8 -15 15 -37 15 -47 0 -28 23 -99 32 -99 5 0 8 -12 8
-26 0 -14 8 -38 19 -52 10 -15 28 -47 41 -72 36 -72 79 -128 172 -222 82 -83
204 -178 229 -178 5 0 7 -5 3 -12 -4 -7 -3 -8 5 -4 6 4 19 2 27 -5 9 -7 23
-14 31 -15 8 -2 25 -11 37 -21 50 -43 138 -76 170 -63 12 4 34 26 49 48 26 36
27 42 17 83 -7 24 -18 69 -25 99 -8 30 -19 75 -25 100 -7 25 -13 54 -15 65 -2
11 -9 38 -15 60 -7 22 -17 63 -23 90 -7 28 -15 55 -18 60 -4 6 -10 30 -15 55
-9 50 -9 49 -17 70 -3 8 -8 26 -11 40 -23 106 -32 140 -39 146 -4 4 -7 18 -7
30 0 13 -4 33 -9 46 -15 41 -30 92 -37 132 l-7 39 42 -29 c23 -16 44 -40 47
-54 3 -14 14 -43 25 -66 10 -23 19 -49 19 -58 0 -9 11 -39 25 -66 14 -27 25
-57 25 -67 0 -10 11 -40 24 -68 26 -57 48 -114 49 -132 0 -7 4 -13 9 -13 4 0
8 -8 8 -17 0 -10 7 -31 15 -47 8 -15 15 -35 15 -42 0 -8 4 -22 9 -32 23 -48
41 -91 51 -127 7 -22 20 -59 31 -82 10 -24 19 -51 19 -62 0 -10 7 -24 15 -31
8 -7 15 -23 15 -37 0 -32 23 -39 64 -19 19 9 38 16 43 16 6 0 18 9 28 20 10
11 20 18 23 15 6 -5 32 45 54 105 19 50 40 148 53 240 2 19 7 51 10 70 18 102
11 322 -12 380 -6 14 -26 91 -39 150 -6 26 -29 83 -44 112 -6 10 -10 26 -10
36 0 10 -4 22 -9 28 -6 5 -24 36 -41 69 -17 33 -49 86 -71 118 -47 65 -226
247 -244 247 -7 0 -20 9 -31 21 -10 11 -32 27 -49 35 -16 7 -37 18 -45 23 -46
30 -222 87 -300 97 -53 7 -106 9 -130 6z"/>
<path d="M7034 24340 c-10 -3 -50 -6 -89 -5 -53 0 -71 -3 -76 -14 -3 -9 -24
-16 -55 -18 -27 -2 -55 -10 -64 -17 -8 -7 -32 -12 -52 -11 -27 1 -38 -3 -38
-13 0 -8 -6 -12 -15 -8 -9 3 -15 0 -15 -8 0 -8 -8 -13 -17 -12 -11 2 -24 -10
-36 -32 -22 -42 -42 -63 -51 -55 -3 4 -6 -1 -6 -10 0 -9 -5 -16 -12 -14 -7 1
-13 -13 -15 -33 -2 -19 -8 -37 -13 -38 -6 -2 -8 -8 -5 -12 6 -9 -25 -81 -38
-91 -4 -3 -7 -10 -6 -15 5 -31 -2 -74 -12 -68 -8 5 -10 -1 -7 -20 3 -14 1 -29
-4 -32 -5 -4 -7 -17 -3 -31 3 -14 2 -22 -3 -19 -12 7 -25 -85 -15 -109 5 -13
3 -16 -7 -10 -10 6 -12 -1 -8 -29 3 -26 0 -36 -10 -36 -10 0 -12 -6 -7 -17 12
-29 14 -83 3 -83 -5 0 -7 -12 -4 -27 8 -41 38 -342 38 -385 1 -21 7 -43 14
-49 8 -7 14 -30 14 -55 0 -33 4 -44 15 -44 11 0 14 -7 10 -23 -4 -15 -1 -28 9
-36 9 -8 16 -23 16 -36 0 -24 22 -74 52 -117 10 -14 18 -36 18 -47 0 -12 4
-21 9 -21 10 0 24 -38 22 -57 -1 -7 4 -13 11 -13 7 0 18 -10 24 -23 25 -51 68
-122 78 -129 6 -4 11 -15 11 -25 0 -10 7 -18 15 -18 8 0 24 -17 36 -39 12 -21
26 -41 30 -45 5 -3 14 -15 21 -26 6 -11 16 -19 21 -18 5 1 15 -11 22 -28 7
-16 17 -32 23 -36 6 -4 7 -1 2 8 -8 12 -6 12 8 0 9 -7 17 -19 17 -25 0 -6 16
-22 35 -36 18 -14 36 -33 38 -42 3 -10 13 -21 24 -25 10 -4 26 -17 36 -30 10
-12 24 -22 30 -20 7 1 11 -5 9 -14 -2 -16 26 -48 36 -40 2 2 45 -32 95 -75 50
-43 87 -72 82 -64 -5 7 8 1 28 -14 20 -16 37 -25 37 -20 0 4 11 -3 25 -16 14
-13 25 -20 25 -15 0 5 5 4 12 -3 7 -7 20 -12 29 -12 9 0 22 -7 29 -15 7 -9 15
-13 18 -10 3 3 14 -2 24 -12 10 -9 18 -13 18 -9 0 3 10 0 23 -8 12 -8 24 -15
27 -15 3 0 19 -5 35 -12 17 -7 32 -13 35 -13 3 -1 11 -5 18 -9 6 -5 12 -5 12
-1 0 4 9 -1 20 -11 11 -10 20 -15 20 -11 0 3 16 0 35 -8 19 -8 35 -12 35 -9 0
3 7 0 15 -7 8 -7 15 -9 15 -5 0 5 9 0 20 -10 11 -10 20 -15 20 -10 0 4 7 2 15
-5 8 -7 15 -9 15 -5 0 4 7 2 15 -5 8 -7 21 -10 30 -7 8 4 17 2 20 -3 3 -4 24
-11 48 -15 23 -4 46 -10 52 -13 5 -4 22 -5 37 -3 14 1 29 -2 32 -8 4 -6 12 -8
19 -5 7 2 30 6 52 8 22 2 44 5 48 5 5 1 6 5 3 10 -3 5 8 7 24 6 20 -2 30 2 30
11 0 8 7 14 15 14 8 0 15 4 15 9 0 6 9 8 20 6 13 -2 20 2 20 11 0 8 7 14 15
14 8 0 15 5 15 11 0 5 5 7 10 4 6 -3 10 0 10 9 0 8 4 16 9 18 12 4 1 68 -13
68 -12 1 -86 93 -86 108 0 5 -7 12 -15 16 -8 3 -20 17 -25 31 -5 14 -16 25
-24 25 -7 0 -16 13 -19 29 -4 18 -14 30 -28 34 -15 4 -20 11 -15 22 4 10 -3
19 -19 27 -14 6 -25 15 -25 20 0 14 -82 113 -94 113 -6 0 -12 9 -15 20 -2 11
-9 24 -16 30 -6 5 -33 38 -60 72 -26 35 -52 60 -57 57 -5 -3 -9 0 -7 7 3 29
-2 39 -20 39 -11 0 -21 9 -25 23 -3 12 -6 24 -7 27 -1 3 -10 11 -21 19 -11 7
-17 19 -14 26 2 7 -6 17 -20 24 -13 6 -24 17 -24 25 0 8 -16 27 -35 42 -19 14
-35 33 -35 40 0 8 -5 14 -10 14 -6 0 -15 11 -20 25 -5 14 -14 25 -20 25 -5 0
-10 5 -10 11 0 15 -50 74 -64 74 -6 0 -10 8 -8 17 3 16 -14 33 -33 33 -5 0
-10 8 -10 18 0 10 -5 21 -10 25 -6 4 -28 30 -50 57 -22 28 -56 68 -77 89 -28
29 -38 49 -38 72 0 17 -3 53 -6 80 l-6 49 52 -58 c28 -31 57 -54 62 -51 6 4 8
3 5 -3 -3 -5 5 -22 19 -39 14 -16 22 -22 18 -14 -5 10 -1 9 14 -4 12 -10 21
-21 20 -25 -2 -17 3 -31 10 -29 9 3 72 -43 72 -53 0 -4 25 -33 55 -64 30 -32
55 -54 55 -50 0 4 7 2 15 -5 8 -7 15 -21 15 -31 0 -11 4 -18 8 -17 11 4 72
-48 72 -61 0 -5 16 -22 35 -37 19 -14 35 -32 35 -39 0 -7 14 -18 30 -24 17 -5
30 -16 30 -23 0 -8 20 -31 45 -51 25 -21 45 -43 45 -50 0 -7 16 -23 35 -37 18
-14 36 -33 38 -42 3 -10 13 -21 22 -24 21 -8 215 -200 215 -213 0 -14 67 -61
75 -53 4 4 5 -2 3 -12 -2 -12 5 -24 17 -30 12 -6 48 -39 82 -73 44 -46 66 -61
81 -58 12 2 24 0 27 -5 6 -9 65 -2 80 10 6 4 18 6 28 5 9 -2 17 3 17 10 0 7 7
15 15 19 8 3 15 13 15 21 0 10 5 13 12 9 8 -5 9 -2 5 9 -3 9 -1 19 4 23 6 3 9
17 6 30 -2 13 0 24 4 24 8 0 11 45 9 155 -1 158 2 230 9 235 6 3 5 25 0 55 -5
28 -12 79 -14 115 -8 115 -17 184 -27 210 -6 14 -12 36 -13 50 -2 14 -9 39
-16 55 -7 17 -13 41 -13 55 -1 15 -6 24 -14 22 -9 -2 -12 4 -8 16 3 10 -1 27
-9 38 -8 10 -15 32 -15 47 0 15 -7 30 -15 33 -8 4 -15 14 -15 24 0 29 -11 50
-26 50 -10 0 -13 7 -8 25 5 19 2 25 -10 25 -9 0 -16 6 -16 13 0 6 -9 23 -19
36 -10 14 -17 30 -14 37 2 7 -5 17 -16 24 -12 6 -21 17 -21 24 0 8 -7 17 -16
20 -8 3 -13 10 -9 15 3 6 0 13 -7 18 -7 4 -19 20 -26 34 -8 14 -29 43 -48 64
-19 21 -34 42 -34 47 0 4 -6 8 -13 8 -10 0 -47 33 -47 43 0 8 -122 132 -130
132 -5 0 -17 10 -25 23 -9 12 -20 20 -25 17 -5 -3 -15 3 -22 15 -7 11 -18 20
-24 20 -16 0 -45 35 -37 45 5 4 3 5 -3 2 -6 -4 -32 11 -57 33 -25 22 -50 40
-55 40 -5 0 -31 18 -58 40 -26 21 -51 37 -54 35 -4 -3 -16 5 -26 16 -16 18
-56 40 -89 49 -5 1 -25 15 -43 31 -29 26 -50 34 -68 27 -3 -2 -11 8 -19 21 -7
14 -22 26 -34 28 -12 1 -33 10 -46 19 -14 9 -25 13 -25 9 0 -4 -7 -2 -15 5 -8
7 -15 9 -16 4 0 -5 -4 0 -8 10 -4 11 -20 21 -36 23 -16 3 -35 9 -42 15 -7 6
-19 8 -27 5 -8 -3 -17 -3 -20 1 -4 3 -16 7 -28 9 -12 2 -26 7 -32 12 -6 5 -22
7 -35 5 -13 -3 -29 0 -35 5 -6 4 -20 7 -31 4 -42 -8 -80 -10 -90 -4 -14 8 -49
9 -71 1z"/>
<path d="M25600 24250 c0 -5 -13 -10 -29 -10 -16 0 -32 -6 -35 -12 -5 -10 -7
-10 -12 0 -6 14 -44 17 -44 3 0 -4 -27 -11 -60 -15 -33 -4 -58 -11 -55 -15 2
-5 -22 -12 -55 -15 -34 -4 -58 -11 -55 -17 4 -5 -5 -9 -20 -9 -38 0 -195 -41
-195 -51 0 -5 -7 -9 -15 -9 -8 0 -15 -4 -15 -10 0 -5 -12 -10 -28 -10 -15 0
-35 -9 -45 -20 -9 -11 -28 -20 -41 -20 -13 0 -27 -7 -30 -16 -4 -12 -15 -15
-36 -12 -26 4 -29 2 -24 -14 4 -15 0 -18 -25 -18 -21 0 -31 -5 -31 -15 0 -8
-5 -15 -10 -15 -6 0 -16 -5 -23 -10 -49 -42 -65 -54 -89 -66 -21 -11 -28 -11
-32 -1 -3 6 -3 2 0 -10 4 -16 1 -23 -9 -23 -8 0 -22 -11 -31 -25 -9 -14 -26
-25 -37 -25 -14 0 -19 -5 -16 -14 7 -17 -26 -32 -44 -21 -6 4 -9 1 -7 -8 2 -8
-6 -23 -18 -34 -11 -10 -23 -26 -27 -35 -3 -10 -14 -18 -22 -18 -9 0 -14 -4
-11 -9 3 -5 -3 -11 -14 -14 -12 -3 -20 -14 -20 -26 0 -14 -8 -23 -25 -27 -14
-3 -25 -11 -25 -16 0 -6 -13 -26 -30 -45 -16 -18 -30 -38 -30 -43 0 -6 -6 -10
-13 -10 -7 0 -21 -20 -32 -45 -11 -25 -24 -45 -28 -45 -14 0 -37 -27 -37 -43
0 -8 -6 -17 -14 -20 -8 -3 -16 -16 -18 -29 -2 -18 -9 -23 -31 -21 -24 2 -26
-1 -21 -21 3 -14 -1 -29 -10 -39 -9 -8 -16 -20 -16 -25 0 -5 -9 -19 -20 -32
-11 -13 -20 -29 -20 -37 0 -7 -4 -13 -8 -13 -8 0 -52 -92 -52 -110 0 -6 -4
-10 -10 -10 -5 0 -12 -16 -16 -35 -3 -19 -10 -38 -15 -41 -5 -2 -11 -27 -15
-54 -4 -28 -10 -50 -15 -50 -5 0 -9 -9 -9 -19 0 -11 -6 -22 -12 -24 -10 -4
-10 -7 -1 -14 10 -7 9 -15 -2 -37 -8 -16 -15 -39 -15 -52 0 -13 -4 -24 -9 -24
-5 0 -13 -26 -17 -57 -3 -32 -10 -62 -14 -68 -4 -5 -10 -35 -14 -65 -4 -30
-12 -57 -17 -60 -19 -12 -38 -365 -20 -383 6 -6 11 -19 11 -29 0 -10 7 -18 15
-18 9 0 15 -9 15 -25 0 -14 7 -28 15 -31 10 -4 13 -13 10 -25 -4 -13 -1 -19 9
-19 9 0 16 -7 16 -15 0 -8 7 -15 15 -15 8 0 15 -4 15 -10 0 -17 60 -41 93 -38
18 2 31 8 29 13 -2 6 7 12 20 15 13 3 24 15 26 26 2 11 13 24 25 30 12 5 21
15 19 22 -1 7 5 12 13 12 8 0 17 11 21 24 3 13 14 26 24 29 10 3 20 15 22 28
2 15 11 25 23 27 11 1 29 16 40 32 11 17 26 30 33 30 6 0 12 6 12 13 0 7 9 19
20 27 11 8 20 20 20 27 0 8 11 18 25 23 14 5 25 13 24 17 -3 21 2 33 16 33 8
0 15 5 15 11 0 18 28 39 44 33 11 -4 13 0 9 14 -3 14 1 21 16 25 12 3 21 12
21 21 0 9 8 16 20 16 15 0 20 7 20 25 0 18 5 25 20 25 13 0 20 7 20 18 0 11
12 24 26 31 16 7 24 17 20 26 -3 8 3 16 15 20 10 4 19 11 19 16 0 5 6 9 13 9
6 0 25 20 40 45 16 25 35 45 43 45 7 0 16 11 20 25 3 13 14 27 23 30 10 3 24
16 30 29 7 13 24 29 36 36 13 7 26 21 28 31 3 11 12 19 21 19 9 0 16 5 16 11
0 16 26 39 45 39 12 0 15 6 10 20 -5 14 -2 20 9 20 9 0 16 4 16 8 0 13 56 72
68 72 6 0 13 9 17 19 3 11 12 22 20 25 8 3 15 12 15 21 0 8 11 20 25 25 15 6
25 17 25 30 0 11 7 20 15 20 8 0 19 9 25 20 6 11 19 20 30 20 10 0 20 4 22 9
2 4 27 11 55 15 44 6 52 4 47 -8 -3 -9 -14 -18 -24 -21 -10 -3 -21 -17 -24
-30 -4 -14 -11 -25 -16 -25 -6 0 -10 -5 -10 -11 0 -6 -13 -24 -30 -41 -16 -16
-30 -38 -30 -49 0 -10 -6 -19 -13 -19 -20 0 -62 -59 -57 -80 1 -3 -9 -7 -21
-10 -12 -3 -23 -14 -25 -25 -2 -11 -8 -21 -13 -23 -6 -2 -11 -12 -11 -23 0
-10 -6 -19 -13 -19 -7 0 -21 -17 -32 -37 -11 -21 -35 -53 -52 -72 -18 -19 -33
-40 -33 -48 0 -7 -9 -13 -20 -13 -11 0 -20 -7 -20 -15 0 -25 -2 -30 -21 -43
-11 -7 -19 -22 -19 -33 0 -10 -7 -19 -15 -19 -8 0 -15 -7 -15 -15 0 -8 -20
-35 -45 -61 -25 -25 -45 -51 -45 -58 0 -6 -9 -18 -20 -26 -11 -8 -20 -19 -20
-25 0 -6 -9 -18 -20 -28 -11 -9 -20 -24 -20 -32 0 -8 -6 -15 -14 -15 -8 0 -22
-20 -33 -45 -11 -28 -24 -45 -35 -45 -9 0 -21 -13 -27 -30 -5 -16 -14 -30 -19
-30 -6 0 -13 -11 -16 -25 -4 -14 -13 -25 -21 -25 -8 0 -24 -20 -36 -45 -12
-25 -27 -45 -34 -45 -7 0 -16 -11 -19 -25 -4 -14 -11 -25 -16 -25 -6 0 -10 -9
-10 -20 0 -12 -7 -20 -17 -20 -11 0 -26 -16 -38 -41 -10 -22 -28 -48 -40 -58
-28 -24 -55 -77 -55 -112 0 -16 -4 -29 -10 -29 -5 0 -10 -9 -10 -20 0 -11 5
-20 10 -20 6 0 10 -9 10 -20 0 -11 7 -23 15 -26 9 -4 14 -16 13 -32 -2 -20 3
-27 26 -33 16 -5 33 -13 36 -20 4 -6 30 -12 58 -12 31 0 48 -5 45 -11 -4 -6 1
-6 13 -1 10 5 55 11 99 13 46 2 83 9 87 15 6 10 45 15 146 17 13 0 20 4 17 10
-4 6 5 10 19 10 14 0 26 -4 26 -10 0 -14 37 -13 42 1 2 6 27 14 56 17 29 2 52
8 52 13 0 5 14 9 30 9 17 0 47 7 67 15 19 8 46 15 60 15 13 0 34 5 46 11 12 7
35 12 51 11 22 -1 26 2 16 9 -23 14 6 29 57 29 26 0 45 6 50 14 4 8 22 16 38
18 17 1 31 9 31 16 1 6 2 17 3 22 0 6 12 10 26 10 14 0 28 7 31 15 4 9 19 15
35 15 19 0 29 5 29 15 0 8 6 15 14 15 18 0 67 46 58 55 -4 4 2 5 13 4 14 -3
35 11 64 39 23 23 47 42 52 42 5 0 32 21 59 48 26 26 62 61 79 77 67 65 120
126 126 145 3 11 12 20 20 20 7 0 23 20 35 45 12 25 28 45 35 45 8 0 17 10 20
23 4 12 18 36 31 54 13 17 24 38 24 45 0 8 9 21 20 31 11 9 20 24 20 32 0 8 4
15 8 15 5 0 16 18 26 40 10 22 22 40 27 40 5 0 9 9 9 19 0 10 7 21 15 25 8 3
15 15 15 26 0 19 37 98 51 110 3 3 9 22 13 43 4 20 11 37 16 37 5 0 12 16 16
35 3 19 10 35 14 35 4 0 10 16 13 35 3 19 13 42 21 51 9 8 16 28 16 42 0 16 8
32 20 40 11 7 20 23 20 36 0 14 7 31 15 40 8 8 15 28 15 45 0 16 7 36 15 44 9
10 15 39 17 81 2 36 6 66 9 66 3 0 6 41 6 90 1 50 -3 90 -8 90 -5 0 -9 34 -9
75 0 41 -4 75 -9 75 -5 0 -12 27 -16 60 -4 33 -11 60 -16 60 -5 0 -9 11 -9 25
0 15 -6 25 -14 25 -13 0 -32 76 -27 107 1 6 -7 14 -18 18 -14 4 -22 19 -27 51
-4 29 -11 44 -21 44 -10 0 -12 6 -8 19 5 16 2 18 -16 14 -18 -5 -21 -3 -17 14
4 15 1 19 -11 17 -17 -5 -71 27 -74 42 -1 5 -6 8 -12 6 -5 -2 -14 3 -20 11 -6
9 -35 17 -70 21 -32 3 -61 10 -64 14 -3 5 -28 12 -55 16 -28 3 -54 12 -59 19
-7 9 -10 9 -14 0 -2 -7 -13 -13 -23 -13 -10 0 -21 6 -24 13 -5 10 -7 10 -12 0
-7 -15 -44 -17 -44 -3 0 6 -49 10 -126 10 -81 0 -123 4 -119 10 3 6 -1 10 -9
10 -9 0 -16 -4 -16 -10z"/>
<path d="M10668 24098 c-313 -225 -582 -647 -688 -1080 -51 -210 -64 -328 -64
-583 1 -289 25 -482 100 -780 51 -202 194 -606 267 -750 46 -93 381 -465 593
-659 314 -287 560 -431 762 -444 61 -3 82 -2 82 7 0 7 -58 194 -130 414 -150
466 -253 803 -351 1145 -197 694 -253 981 -266 1362 l-6 185 27 -24 c51 -48
142 -258 366 -846 226 -595 328 -839 465 -1120 177 -361 365 -675 469 -782 38
-40 73 -73 78 -73 14 0 120 150 185 261 66 113 127 245 161 349 79 240 115
655 92 1065 -20 367 -27 406 -104 600 -151 378 -343 731 -539 990 -77 101
-240 269 -337 348 -185 150 -467 300 -730 388 -144 49 -163 53 -270 57 l-115
4 -47 -34z"/>
<path d="M19795 23989 c-22 -4 -48 -5 -57 -3 -10 3 -23 2 -29 -2 -7 -4 -26 -8
-43 -10 -17 -1 -56 -6 -86 -10 -30 -4 -69 -8 -87 -8 -17 -1 -29 -5 -25 -10 3
-5 -9 -6 -27 -3 -20 4 -30 3 -26 -3 9 -14 -28 -12 -45 3 -12 10 -12 9 -1 -5
12 -16 11 -18 -5 -19 -27 -3 -48 -6 -54 -8 -3 -2 -14 -4 -25 -5 -30 -4 -95
-29 -95 -37 0 -4 -9 -5 -20 -2 -12 3 -20 0 -20 -7 0 -7 -7 -10 -16 -6 -8 3
-12 2 -9 -4 3 -6 -2 -11 -12 -12 -10 -1 -25 -2 -33 -3 -8 0 -28 -9 -43 -20
-24 -16 -30 -16 -38 -4 -8 13 -13 6 -10 -13 0 -5 -4 -8 -11 -8 -22 0 -141 -52
-161 -71 -11 -10 -30 -21 -41 -25 -40 -11 -76 -29 -76 -37 0 -5 -4 -5 -10 -2
-5 3 -10 2 -10 -3 0 -5 -16 -17 -35 -28 -19 -10 -35 -21 -35 -25 0 -3 -22 -17
-49 -30 -27 -13 -48 -26 -45 -30 2 -4 -11 -14 -29 -22 -18 -9 -41 -25 -52 -37
-10 -11 -23 -20 -28 -20 -5 0 -20 -10 -32 -22 -32 -34 -65 -59 -65 -50 -1 4
-7 -8 -15 -25 -8 -18 -19 -33 -25 -33 -16 0 -170 -152 -170 -167 0 -7 -7 -13
-15 -13 -9 0 -19 -8 -22 -17 -4 -10 -10 -20 -13 -23 -16 -12 -100 -120 -100
-129 0 -5 -11 -18 -24 -28 -13 -11 -33 -40 -45 -66 -12 -26 -25 -47 -30 -47
-5 0 -23 -29 -40 -64 -18 -35 -41 -73 -51 -84 -11 -12 -20 -23 -20 -26 0 -3
-11 -30 -25 -60 -14 -30 -25 -60 -25 -65 0 -6 -4 -11 -10 -11 -5 0 -10 -8 -10
-17 -1 -21 -29 -74 -30 -55 0 17 -20 15 -20 -3 0 -8 4 -15 10 -15 6 0 5 -10
-2 -25 -6 -13 -15 -22 -19 -19 -5 3 -9 -9 -9 -26 0 -18 -6 -44 -14 -58 -7 -15
-19 -45 -26 -67 -12 -40 -30 -84 -55 -140 -8 -16 -17 -46 -20 -65 -3 -19 -10
-44 -15 -55 -20 -46 -44 -142 -41 -167 1 -16 -3 -28 -8 -28 -6 0 -11 -11 -11
-24 0 -14 -5 -37 -11 -53 -7 -15 -12 -47 -13 -71 -1 -24 -8 -47 -15 -52 -10
-5 -12 -18 -8 -40 4 -19 1 -45 -8 -67 -8 -19 -12 -46 -9 -59 4 -13 1 -30 -4
-37 -6 -7 -10 -28 -9 -47 1 -19 -2 -50 -7 -69 -6 -26 -5 -32 5 -26 9 6 10 3 5
-11 -10 -23 -11 -80 -3 -154 3 -30 6 -55 7 -55 2 0 12 -115 13 -162 1 -28 5
-54 9 -58 4 -4 2 -15 -4 -25 -9 -14 -9 -22 -1 -32 7 -7 14 -47 17 -88 3 -41
10 -91 16 -110 6 -19 13 -62 16 -95 3 -33 16 -102 30 -153 14 -51 22 -97 19
-102 -4 -6 1 -17 10 -26 9 -9 14 -23 11 -30 -3 -8 4 -32 15 -54 11 -22 18 -44
14 -50 -4 -6 -2 -17 4 -24 6 -7 25 -41 42 -75 17 -33 35 -61 41 -61 6 0 24
-15 42 -32 17 -18 49 -42 71 -53 22 -11 45 -26 51 -34 6 -8 16 -11 22 -7 7 4
12 1 12 -8 0 -9 12 -19 28 -22 15 -4 32 -11 38 -16 6 -4 19 -6 28 -2 9 3 16 1
16 -6 0 -6 11 -10 28 -8 23 3 27 8 30 41 2 20 7 37 13 37 5 0 9 11 9 24 0 14
7 31 15 40 8 8 15 26 15 40 0 14 4 26 10 26 5 0 12 16 16 35 3 19 10 35 15 35
5 0 9 7 9 15 0 8 5 15 10 15 6 0 10 12 10 28 0 15 7 36 15 46 8 11 15 30 15
43 0 13 4 23 10 23 5 0 13 18 16 40 4 22 10 38 14 35 4 -3 10 13 14 35 3 22
11 40 16 40 6 0 10 9 10 21 0 11 4 18 8 15 4 -2 9 4 9 15 1 11 13 43 27 72 14
28 26 58 26 66 0 9 7 25 15 35 8 11 15 26 15 33 0 7 11 36 25 65 14 28 25 55
25 60 0 4 12 33 26 65 15 32 33 74 41 93 8 19 18 43 23 52 6 10 10 25 10 34 0
9 6 28 14 42 8 15 21 43 29 62 36 88 42 100 50 100 5 0 6 4 3 9 -3 4 4 25 14
47 11 21 20 44 20 51 0 7 4 21 10 31 5 9 15 33 23 52 8 19 22 53 31 75 10 22
21 49 26 60 4 11 20 45 34 76 14 31 26 62 26 68 0 7 6 25 14 39 7 15 19 41 26
57 6 17 18 43 26 58 8 16 14 35 14 42 0 7 6 26 14 42 18 35 39 86 57 136 7 20
17 37 21 37 4 0 8 9 8 20 0 28 21 70 36 70 7 0 17 6 21 14 4 8 22 22 39 32 72
45 100 64 123 86 13 13 22 19 19 13 -3 -5 -12 -28 -22 -50 -9 -22 -21 -47 -25
-56 -5 -8 -7 -26 -4 -40 2 -13 -7 -50 -22 -83 -14 -32 -28 -75 -30 -95 -2 -20
-8 -52 -13 -71 -8 -34 -13 -46 -42 -99 -7 -14 -14 -43 -15 -65 -2 -23 -7 -52
-13 -66 -5 -14 -11 -29 -12 -35 -2 -5 -9 -24 -17 -42 -7 -18 -13 -47 -13 -65
0 -18 -7 -46 -15 -62 -8 -15 -15 -35 -15 -42 0 -8 -6 -25 -14 -37 -8 -12 -17
-44 -21 -72 -7 -48 -27 -112 -47 -149 -5 -10 -11 -36 -13 -58 -1 -21 -5 -42
-9 -45 -3 -4 -6 -15 -6 -25 0 -11 -5 -29 -12 -41 -20 -36 -37 -90 -32 -99 5
-8 -18 -83 -35 -118 -9 -17 -28 -98 -36 -152 -3 -21 -10 -38 -15 -38 -6 0 -10
-10 -10 -22 -1 -13 -7 -34 -15 -48 -8 -14 -14 -35 -15 -47 0 -21 -30 -120 -50
-168 -18 -44 -30 -90 -30 -119 0 -17 -6 -40 -13 -51 -18 -27 -41 -106 -38
-129 2 -10 -2 -28 -7 -40 -5 -12 -18 -41 -28 -66 -10 -25 -21 -47 -24 -50 -3
-3 -6 -38 -8 -79 -3 -80 18 -140 65 -191 13 -14 23 -30 23 -36 0 -12 28 -27
88 -45 33 -9 55 -10 90 -2 57 13 183 59 191 71 3 4 24 19 46 32 22 13 49 32
59 42 11 10 23 18 26 18 4 0 17 9 30 20 13 11 33 20 44 20 12 0 30 6 41 13 11
8 48 24 83 36 34 13 62 27 62 31 0 4 28 20 63 35 34 15 64 31 67 35 3 3 23 17
45 30 22 13 42 27 45 30 3 4 25 19 49 35 46 28 60 39 91 67 10 9 20 14 23 12
6 -7 57 44 57 56 0 6 4 10 8 10 4 0 30 20 57 44 27 25 53 43 57 40 4 -3 8 2 8
11 0 16 65 85 81 85 5 0 9 7 9 15 0 8 5 15 10 15 6 0 10 6 10 14 0 8 9 18 21
21 11 4 24 18 29 31 5 13 16 24 25 24 8 0 15 6 15 14 0 8 13 28 29 45 25 26
40 51 46 71 0 3 15 20 33 39 18 18 32 39 32 47 0 8 8 22 18 32 9 9 30 44 46
77 16 33 32 62 36 65 16 13 50 70 50 84 0 9 5 16 10 16 6 0 10 7 10 15 0 18
32 89 43 93 4 2 7 14 7 26 0 12 7 31 15 42 8 10 15 29 15 42 0 12 5 22 10 22
6 0 10 8 10 18 0 10 7 27 15 38 8 10 15 26 15 34 0 8 6 27 14 41 7 14 16 48
20 77 3 28 13 63 21 79 8 15 15 36 15 45 0 9 4 19 9 22 5 4 9 27 8 52 0 25 5
49 11 53 6 4 16 37 22 74 5 37 14 96 20 131 5 34 12 70 16 80 3 9 2 16 -4 16
-6 0 -4 12 5 30 9 19 12 41 8 60 -4 17 -2 36 3 43 5 7 9 42 8 79 -1 36 2 64 6
62 4 -3 7 17 6 43 -1 26 1 62 6 78 6 23 5 27 -4 15 -9 -12 -10 -9 -5 15 3 17
7 73 9 125 3 52 8 103 11 113 4 9 3 17 -1 17 -9 0 -9 30 -3 160 2 49 -3 133
-16 256 -4 38 -27 135 -54 222 -5 18 -7 40 -4 49 4 10 2 14 -4 10 -6 -4 -18
13 -28 40 -10 25 -37 79 -61 120 -24 40 -44 80 -44 88 0 8 -5 15 -10 15 -6 0
-18 17 -28 38 -9 20 -19 39 -22 42 -20 20 -43 52 -32 46 6 -4 12 -3 12 3 0 5
-10 13 -22 17 -21 6 -88 71 -88 85 0 3 -9 16 -20 29 -11 12 -17 27 -14 31 3 5
-8 12 -25 15 -17 4 -31 10 -31 14 0 4 -16 25 -35 46 -19 22 -35 42 -35 47 0 4
-9 7 -19 7 -11 0 -23 9 -26 20 -4 13 -15 20 -30 20 -13 0 -26 4 -30 9 -3 5
-19 12 -35 16 -17 4 -30 11 -30 16 0 5 -11 9 -24 9 -14 0 -27 4 -30 9 -9 14
-38 18 -81 10z"/>
<path d="M15973 23286 c-13 -6 -23 -15 -23 -21 0 -5 -5 -3 -10 5 -9 13 -12 13
-23 -2 -9 -11 -18 -13 -29 -7 -11 6 -19 5 -23 -1 -4 -6 -10 -8 -15 -5 -5 3
-20 0 -32 -7 -13 -7 -27 -11 -32 -10 -4 2 -13 -2 -20 -7 -7 -6 -17 -6 -26 -1
-8 5 -21 5 -32 -1 -10 -5 -18 -7 -18 -4 0 4 -16 -3 -36 -15 -19 -12 -38 -20
-41 -16 -4 3 -17 -1 -29 -9 -13 -8 -30 -12 -39 -9 -10 4 -22 -1 -31 -15 -17
-24 -36 -28 -28 -6 9 22 -24 8 -37 -16 -8 -15 -14 -17 -29 -9 -15 8 -24 4 -47
-20 -31 -34 -46 -39 -36 -13 6 16 4 16 -22 -1 -17 -11 -36 -28 -44 -39 -13
-19 -15 -19 -27 -3 -11 16 -13 16 -27 -5 -19 -26 -87 -68 -102 -63 -6 3 -26
-10 -45 -28 -18 -18 -30 -26 -25 -18 8 13 7 13 -10 0 -10 -8 -28 -24 -40 -35
-41 -38 -70 -60 -77 -57 -5 1 -8 -3 -8 -8 0 -6 -22 -24 -50 -41 -27 -17 -50
-34 -50 -39 0 -4 -24 -23 -52 -41 -29 -18 -57 -39 -61 -46 -5 -8 -26 -25 -48
-38 -22 -15 -39 -33 -39 -44 0 -19 -29 -51 -52 -55 -38 -8 -49 -19 -44 -42 5
-18 0 -26 -20 -37 -16 -8 -32 -29 -38 -48 -7 -23 -18 -35 -33 -37 -23 -3 -41
-34 -23 -40 6 -2 -5 -15 -24 -28 -21 -14 -36 -33 -36 -44 0 -11 -4 -20 -10
-20 -5 0 -10 -9 -10 -20 0 -10 -9 -24 -20 -30 -11 -6 -20 -19 -20 -29 0 -11
-6 -21 -14 -24 -8 -3 -16 -16 -18 -29 -2 -16 -9 -22 -21 -20 -14 2 -18 -2 -16
-20 2 -26 -15 -73 -30 -83 -6 -3 -11 -15 -11 -26 0 -10 -5 -19 -11 -19 -6 0
-9 -8 -7 -17 2 -9 -8 -28 -20 -41 -15 -14 -22 -31 -19 -42 3 -11 -1 -24 -9
-31 -8 -6 -14 -8 -15 -3 0 5 -4 0 -9 -11 -4 -11 -5 -32 -3 -47 3 -17 1 -28 -6
-28 -6 0 -11 -7 -11 -15 0 -9 -7 -27 -16 -40 -9 -14 -13 -33 -9 -45 4 -14 2
-20 -9 -20 -18 0 -30 -33 -21 -59 3 -11 1 -22 -5 -26 -5 -3 -10 -15 -10 -26 0
-11 -5 -17 -10 -14 -7 4 -9 -2 -5 -18 4 -16 1 -35 -10 -50 -9 -14 -16 -44 -17
-66 0 -25 -8 -51 -20 -67 -15 -19 -19 -35 -15 -63 2 -21 -1 -48 -8 -62 -9 -16
-10 -29 -3 -42 8 -15 5 -22 -12 -34 -14 -10 -20 -22 -17 -35 3 -10 2 -45 -3
-76 -16 -109 -30 -197 -36 -236 -6 -30 -4 -37 6 -31 9 6 11 0 6 -24 -3 -17 -9
-45 -12 -62 -4 -22 -3 -29 5 -25 7 5 9 -3 5 -23 -4 -17 -3 -38 1 -48 5 -10 7
-28 6 -40 -1 -13 2 -23 7 -23 6 0 7 -14 1 -37 -5 -23 -4 -39 1 -41 6 -2 7 -15
4 -29 -5 -20 -4 -24 6 -18 10 6 11 -2 6 -39 -4 -28 -3 -46 2 -46 6 0 8 -9 5
-20 -3 -11 -1 -20 4 -20 6 0 9 -12 7 -27 -3 -26 10 -97 23 -133 4 -8 5 -23 4
-32 -1 -10 3 -18 9 -18 7 0 9 -8 5 -19 -3 -11 -1 -22 5 -26 5 -3 7 -17 4 -31
-3 -13 -2 -24 4 -24 5 0 7 -12 4 -26 -3 -15 -1 -25 4 -22 5 3 10 -16 11 -44 1
-27 8 -56 15 -65 7 -9 13 -21 14 -27 0 -6 2 -19 2 -29 1 -11 7 -15 14 -11 7 4
8 3 4 -5 -10 -16 3 -73 16 -65 6 4 8 -1 3 -15 -4 -13 -1 -27 9 -37 9 -8 16
-22 16 -30 0 -9 5 -12 11 -8 8 4 9 0 4 -15 -4 -13 -1 -27 9 -37 9 -8 16 -22
16 -30 0 -8 4 -12 10 -9 6 4 7 -1 3 -11 -5 -13 -3 -16 10 -11 11 4 17 1 17 -7
0 -7 10 -21 22 -32 12 -10 18 -13 14 -7 -5 9 -2 11 8 7 9 -3 13 -10 10 -15 -3
-5 -1 -9 5 -9 5 0 13 -9 16 -21 5 -14 13 -19 26 -16 11 3 26 -1 34 -10 8 -8
20 -11 27 -7 7 5 9 2 5 -8 -7 -20 26 -31 43 -14 9 8 11 7 8 -4 -2 -8 3 -14 11
-12 8 2 11 -3 8 -13 -8 -18 4 -20 21 -3 9 9 15 9 20 2 8 -12 53 -14 46 -2 -5
7 11 11 20 6 11 -7 47 38 43 54 -3 10 -1 21 4 24 5 3 9 13 9 22 0 9 7 30 15
46 8 15 15 36 15 45 0 9 7 25 15 35 8 11 15 30 15 43 0 13 7 35 16 48 9 14 13
33 9 45 -4 11 -2 20 4 20 6 0 11 5 11 11 0 6 10 20 23 31 14 12 18 21 11 24
-15 6 -5 44 11 44 16 0 29 31 17 39 -11 7 2 46 17 56 6 3 11 21 11 40 0 20 6
35 15 39 8 3 15 13 15 21 0 9 -4 13 -10 10 -16 -10 -11 11 6 25 27 23 38 52
23 61 -10 6 -7 13 12 29 16 15 20 23 11 26 -9 4 -7 12 8 31 11 14 20 33 20 43
0 9 7 32 16 50 13 25 14 34 4 40 -8 5 -5 9 10 13 19 5 22 11 18 40 -3 26 1 38
15 46 14 9 17 19 12 42 -5 21 -3 31 9 35 9 3 16 14 16 24 0 11 4 21 9 24 5 3
12 21 15 41 4 19 12 37 18 41 7 4 8 3 4 -4 -4 -7 -3 -12 3 -12 6 0 8 12 4 30
-4 22 0 36 12 50 10 11 15 28 12 40 -3 11 -2 22 3 25 4 3 11 25 14 50 4 26 12
44 19 42 7 -1 11 7 10 20 -1 11 4 27 12 33 8 7 15 25 15 40 0 15 7 33 16 41 9
7 14 22 11 35 -2 13 3 26 15 33 20 13 24 47 6 53 -8 3 -1 12 15 22 26 18 37
46 17 46 -19 0 -10 29 11 35 13 5 19 13 16 24 -2 10 2 26 9 36 8 10 14 27 14
37 0 10 7 30 16 43 9 14 14 34 11 45 -3 11 -1 20 4 20 5 0 14 12 20 27 7 20 7
28 -3 34 -10 6 -9 11 5 22 11 7 20 25 20 40 1 15 5 27 8 27 4 0 17 10 30 23
13 13 47 39 74 57 28 19 55 41 62 49 14 19 -7 -63 -24 -94 -6 -11 -12 -31 -12
-45 -3 -64 -7 -88 -19 -103 -8 -9 -10 -22 -6 -28 4 -7 3 -9 -3 -6 -6 4 -9 -11
-9 -36 1 -29 -3 -41 -11 -39 -15 2 -14 5 -18 -74 -1 -34 -9 -71 -18 -85 -9
-13 -17 -33 -17 -44 -4 -79 -6 -93 -12 -89 -12 8 -22 -19 -24 -66 -1 -25 -2
-53 -3 -63 -1 -9 -7 -16 -13 -15 -8 2 -14 -11 -15 -32 -6 -81 -9 -98 -21 -112
-6 -8 -14 -39 -17 -67 -3 -29 -13 -63 -21 -77 -11 -16 -14 -35 -10 -56 4 -19
1 -39 -7 -52 -13 -19 -33 -130 -25 -140 2 -2 -5 -13 -15 -24 -12 -13 -21 -43
-24 -83 -4 -42 -12 -68 -25 -81 -13 -13 -16 -23 -9 -35 8 -15 3 -43 -17 -93
-3 -8 -7 -22 -8 -30 -1 -8 -5 -33 -8 -55 -10 -63 -11 -69 -24 -92 -7 -12 -15
-44 -18 -70 -4 -26 -13 -56 -22 -65 -8 -10 -12 -27 -9 -39 3 -11 0 -33 -6 -47
-9 -20 -9 -26 1 -30 19 -6 14 -20 -9 -27 -16 -5 -20 -14 -18 -38 4 -40 -10
-117 -21 -117 -8 0 -19 -50 -25 -114 -3 -27 1 -46 12 -58 9 -10 13 -26 10 -40
-5 -18 0 -29 18 -42 14 -10 25 -25 25 -32 0 -7 6 -11 14 -8 9 3 21 -5 31 -19
15 -24 54 -49 40 -27 -3 6 -1 10 4 10 6 0 11 -5 11 -10 0 -7 6 -7 18 -1 12 6
23 5 36 -5 13 -9 23 -10 31 -4 6 5 21 8 33 5 15 -2 31 5 48 23 18 18 25 21 21
10 -9 -27 5 -22 47 17 22 20 51 38 65 42 31 7 131 64 131 75 0 11 87 68 93 61
7 -7 44 16 80 49 27 25 73 36 60 15 -3 -7 7 3 24 21 17 17 35 32 41 32 5 0 28
17 50 38 22 20 59 51 82 67 23 17 56 40 73 53 18 12 41 30 52 40 11 10 39 31
62 48 24 16 43 36 43 44 0 8 25 35 55 60 30 25 55 52 55 60 0 8 14 23 31 33
18 10 29 23 26 31 -3 7 7 23 24 35 17 13 29 31 29 44 0 14 11 28 30 39 17 9
30 24 30 33 0 9 16 31 35 51 36 35 44 54 24 54 -8 0 -8 5 1 15 7 8 20 14 29
13 11 -2 16 4 15 22 -1 14 2 27 6 30 4 3 17 26 29 53 12 26 28 47 36 47 11 0
14 7 9 25 -4 18 -1 32 11 45 10 11 15 26 12 34 -7 17 16 39 28 28 5 -4 5 1 2
11 -4 11 5 36 24 68 17 27 29 53 25 56 -3 4 1 14 10 24 10 11 14 27 11 41 -4
15 1 30 16 47 14 15 18 25 10 28 -11 4 0 67 17 88 7 9 24 84 25 111 0 6 7 19
14 28 8 10 15 45 17 82 1 36 8 72 15 80 10 12 10 17 1 23 -8 5 -9 17 -2 41 5
19 9 44 9 55 -1 11 4 54 11 95 7 41 14 109 16 150 2 41 5 127 7 190 3 63 2
119 -1 125 -9 14 -8 174 1 168 4 -2 7 10 7 27 0 17 -3 29 -7 27 -10 -6 -9 51
1 81 5 14 3 29 -5 38 -7 9 -12 34 -11 57 1 23 -2 58 -8 76 -7 26 -7 37 3 43 9
5 8 15 -7 42 -10 20 -15 42 -12 54 4 11 3 23 -3 26 -5 3 -7 16 -3 28 3 14 1
19 -6 14 -7 -4 -13 7 -18 29 -3 19 -10 35 -14 35 -4 0 -5 11 -2 25 5 26 -23
69 -39 60 -4 -3 -5 10 -2 28 5 34 -18 73 -38 62 -5 -4 -6 1 -3 9 3 9 1 16 -5
16 -6 0 -11 7 -11 16 0 8 -4 12 -10 9 -6 -3 -7 1 -4 9 3 9 1 16 -5 16 -6 0 -8
7 -5 15 4 9 -3 24 -16 35 -13 11 -20 20 -16 20 4 0 1 6 -6 14 -7 8 -17 11 -22
8 -5 -3 -6 0 -2 7 5 7 -1 20 -13 30 -11 10 -18 21 -15 24 3 3 -4 8 -15 12 -12
3 -24 17 -27 31 -3 13 -10 21 -15 18 -5 -3 -9 1 -9 9 0 8 -7 20 -15 27 -8 7
-13 16 -10 20 2 4 -3 7 -13 7 -36 0 -41 3 -35 20 4 9 2 14 -4 10 -10 -6 -43
26 -43 44 0 5 -5 7 -12 3 -8 -5 -9 -2 -5 9 6 16 -3 22 -26 18 -13 -2 -34 23
-29 37 2 7 -2 10 -12 6 -12 -5 -15 -2 -9 12 4 11 3 15 -4 11 -6 -4 -13 3 -16
14 -4 14 -11 20 -21 16 -8 -3 -18 -2 -21 4 -4 5 -11 6 -17 3 -8 -5 -9 -1 -5
10 6 14 3 16 -14 11 -15 -5 -19 -4 -15 4 8 13 6 13 -49 15 -22 1 -46 5 -53 10
-7 4 -19 2 -27 -4 -12 -10 -15 -9 -15 4 0 14 -4 15 -21 5 -15 -8 -19 -8 -15 0
5 7 -1 11 -14 11 -12 0 -18 5 -15 10 3 6 5 9 3 9 -2 -1 -13 -6 -25 -13z"/>
<path d="M22555 22830 c-4 -6 -21 -10 -38 -10 -28 1 -136 -23 -222 -50 -16 -5
-47 -12 -67 -16 -21 -3 -38 -10 -38 -14 0 -5 -13 -11 -30 -15 -16 -4 -30 -11
-30 -16 0 -5 -8 -9 -17 -9 -10 0 -27 -7 -37 -15 -10 -8 -22 -12 -26 -10 -5 3
-10 -2 -14 -10 -3 -8 -10 -15 -16 -15 -5 0 -32 -16 -58 -35 -27 -19 -52 -33
-55 -30 -4 3 -5 2 -3 -1 6 -8 -39 -54 -53 -54 -6 0 -11 -4 -11 -10 0 -5 -7
-10 -15 -10 -8 0 -15 -4 -15 -9 0 -5 -24 -34 -52 -64 -73 -74 -104 -111 -118
-137 -6 -12 -19 -30 -28 -40 -29 -31 -38 -44 -45 -63 -4 -10 -11 -15 -17 -12
-5 3 -10 -3 -10 -14 0 -12 -3 -21 -8 -21 -8 0 -14 -10 -56 -96 -35 -71 -77
-181 -80 -209 -1 -11 -7 -38 -13 -60 -41 -153 -57 -247 -58 -341 0 -81 3 -104
17 -117 9 -10 20 -26 23 -37 3 -11 11 -20 16 -20 5 0 9 -8 9 -17 0 -9 3 -14 6
-11 3 4 14 -2 25 -13 10 -10 26 -19 35 -19 17 0 84 64 84 81 0 5 7 9 15 9 8 0
15 4 15 9 0 14 45 61 59 61 6 0 10 3 9 8 -5 14 115 142 132 142 6 0 10 7 10
15 0 8 5 15 10 15 6 0 10 7 10 15 0 8 7 15 15 15 8 0 15 5 15 11 0 6 22 33 50
60 27 27 70 74 96 104 26 31 51 52 58 48 6 -3 8 -3 4 1 -4 5 12 27 35 49 23
23 42 44 42 48 0 4 25 31 55 61 30 30 67 68 81 86 17 21 45 38 81 50 54 18 56
18 45 0 -7 -10 -17 -18 -24 -18 -7 0 -13 -6 -13 -13 0 -16 -50 -86 -122 -170
-16 -17 -28 -37 -28 -44 0 -7 -4 -13 -9 -13 -6 0 -16 -12 -24 -27 -7 -16 -19
-27 -26 -25 -7 1 -10 -2 -7 -6 3 -5 -6 -22 -19 -36 -14 -15 -25 -31 -25 -37 0
-5 -4 -9 -10 -9 -5 0 -10 -6 -10 -14 0 -8 -7 -16 -15 -20 -8 -3 -15 -11 -15
-19 0 -7 -11 -24 -25 -37 -14 -13 -25 -27 -25 -32 0 -4 -8 -17 -17 -27 -52
-56 -63 -70 -63 -80 0 -5 -12 -24 -27 -40 -16 -16 -39 -46 -53 -66 -14 -20
-33 -46 -42 -56 -10 -10 -18 -23 -18 -28 0 -9 -16 -29 -72 -89 -12 -13 -28
-36 -36 -50 -17 -32 -19 -105 -3 -110 6 -2 11 -9 11 -16 0 -17 74 -50 94 -43
9 4 16 2 16 -4 0 -6 4 -8 9 -4 5 3 35 8 67 10 31 3 65 10 74 15 10 5 30 9 46
9 64 1 84 4 208 33 72 17 136 37 144 44 7 8 24 14 38 14 13 0 24 5 24 10 0 6
9 10 20 10 11 0 20 5 20 10 0 6 9 10 20 10 11 0 20 4 20 9 0 5 20 20 45 32 25
12 45 26 45 31 0 4 6 8 14 8 8 0 26 14 39 30 14 17 29 30 32 30 7 0 25 16 96
82 48 45 137 159 185 238 21 36 45 74 51 85 7 11 16 28 19 38 3 9 10 17 15 17
5 0 9 8 9 18 0 9 9 32 20 50 11 18 20 41 20 52 0 11 5 20 10 20 6 0 10 7 10
15 0 15 29 87 56 138 9 15 12 27 8 27 -3 0 -2 6 3 13 37 46 56 199 40 327 -6
54 -30 142 -51 191 -8 20 -12 39 -9 43 4 3 0 6 -8 6 -9 0 -16 11 -17 28 -1 15
-7 29 -12 30 -6 2 -10 8 -10 14 0 5 -7 16 -15 24 -8 9 -15 12 -15 8 0 -4 -10
2 -22 13 -22 20 -56 35 -88 38 -8 1 -37 8 -65 17 -46 15 -72 18 -202 21 -23 1
-39 5 -37 9 3 4 -6 4 -20 -2 -17 -6 -26 -6 -26 0 0 13 -17 13 -25 0z"/>
<path d="M3507 22403 c-5 -4 -108 -23 -147 -27 -14 -1 -35 -8 -46 -14 -12 -6
-24 -9 -27 -5 -4 3 -18 -2 -31 -11 -14 -9 -32 -16 -39 -16 -8 0 -27 -6 -43
-14 -16 -8 -56 -26 -89 -42 -147 -67 -367 -228 -406 -297 -18 -33 -23 -54 -21
-97 5 -94 33 -231 62 -305 26 -67 35 -91 33 -97 -1 -3 4 -12 12 -18 8 -7 15
-17 15 -22 0 -19 110 -195 152 -243 195 -225 356 -348 573 -439 50 -21 122
-53 162 -71 39 -18 98 -39 130 -45 32 -7 75 -21 95 -31 21 -11 48 -19 60 -19
13 0 48 -7 78 -16 48 -13 165 -34 195 -35 6 0 37 3 70 6 189 19 330 41 475 77
47 11 92 21 100 23 8 1 22 5 30 8 8 4 38 14 65 23 100 33 200 89 253 142 82
81 94 71 -208 163 -137 41 -306 94 -399 126 -40 13 -114 37 -165 53 -50 16
-143 48 -206 70 -63 23 -135 48 -160 56 -25 8 -54 18 -65 24 -11 5 -38 16 -60
24 -148 53 -371 165 -488 245 -80 55 -70 61 69 36 144 -25 200 -38 419 -96
206 -54 473 -116 558 -130 33 -5 63 -12 69 -15 5 -3 40 -10 76 -15 37 -6 99
-15 137 -21 39 -6 90 -11 115 -12 25 -1 61 -5 80 -9 19 -5 80 -10 135 -13 55
-2 105 -4 110 -5 22 -1 125 18 132 25 26 26 -113 327 -193 416 -12 14 -44 50
-70 80 -26 30 -50 57 -54 60 -4 3 -27 21 -50 40 -23 19 -56 47 -74 61 -142
117 -418 287 -531 327 -56 20 -382 81 -485 91 -39 4 -400 8 -403 4z"/>
<path d="M25750 20867 c-3 -2 -37 -7 -76 -10 -39 -4 -77 -9 -85 -12 -8 -2 -34
-7 -59 -9 -52 -5 -71 -9 -85 -18 -6 -3 -28 -9 -50 -13 -60 -10 -265 -74 -310
-97 -77 -38 -128 -73 -169 -114 -6 -6 -18 -15 -27 -20 -67 -39 -359 -324 -359
-351 0 -4 -12 -19 -26 -33 -14 -13 -30 -33 -35 -45 -5 -11 -13 -27 -18 -35
-16 -28 -31 -86 -31 -124 0 -37 1 -38 33 -33 43 7 60 11 72 19 6 3 28 9 50 13
22 4 56 12 75 18 19 6 41 12 48 14 21 5 36 10 52 15 14 6 159 35 206 43 11 1
56 13 100 25 43 12 90 23 104 25 14 2 106 21 205 43 99 22 223 47 275 57 52 9
104 19 115 22 11 2 85 4 165 3 205 -1 220 -2 220 -10 0 -8 -20 -16 -130 -50
-41 -13 -80 -28 -87 -32 -6 -5 -23 -10 -37 -12 -13 -1 -32 -8 -41 -16 -8 -7
-18 -10 -22 -7 -3 3 -18 0 -33 -8 -15 -8 -30 -12 -32 -10 -2 3 -33 -6 -68 -20
-35 -14 -73 -25 -85 -25 -12 0 -25 -4 -30 -8 -9 -8 -81 -31 -98 -31 -4 -1 -21
-8 -37 -16 -17 -9 -30 -13 -30 -10 0 3 -13 -1 -30 -10 -16 -8 -33 -16 -37 -16
-15 -2 -28 -7 -86 -28 -33 -11 -69 -21 -81 -21 -12 0 -27 -5 -33 -11 -6 -6
-17 -12 -24 -13 -20 -4 -46 -15 -104 -41 -27 -13 -83 -37 -124 -55 -41 -18
-90 -41 -110 -53 -20 -11 -64 -35 -99 -53 -34 -18 -83 -51 -108 -73 l-45 -39
38 -29 c21 -15 46 -35 56 -44 32 -29 107 -80 107 -73 0 3 15 -5 33 -18 62 -47
209 -95 374 -122 57 -10 252 -19 393 -19 143 -1 191 7 280 45 48 20 65 27 90
33 36 10 213 86 270 116 8 5 38 20 65 34 65 33 119 65 125 74 3 4 12 12 22 17
26 15 128 105 172 153 23 25 48 52 58 62 9 9 19 26 23 38 3 12 11 21 16 21 5
0 9 6 9 14 0 8 4 16 9 18 22 8 139 229 155 293 27 105 25 153 -7 208 -30 51
-148 173 -218 225 -70 52 -148 102 -158 102 -6 0 -25 9 -44 20 -31 18 -126 55
-172 66 -35 9 -40 10 -60 17 -26 8 -72 17 -115 23 -60 7 -295 16 -300 11z"/>
<path d="M7870 20670 c0 -4 -10 -6 -22 -7 -85 -2 -222 -18 -275 -33 -20 -5
-35 -5 -39 1 -4 6 -11 6 -19 -1 -8 -7 -20 -8 -26 -4 -7 4 -9 3 -5 -4 6 -10 -5
-14 -69 -26 -11 -2 -33 -9 -49 -15 -16 -7 -31 -9 -34 -6 -3 3 -14 -3 -25 -12
-10 -10 -20 -17 -21 -15 -2 6 -61 -10 -73 -21 -7 -5 -13 -6 -13 -2 0 4 -31
-24 -70 -64 -38 -39 -70 -77 -70 -85 0 -8 -7 -16 -15 -20 -8 -3 -14 -9 -13
-13 5 -18 -15 -89 -29 -105 -9 -10 -17 -32 -19 -50 -7 -64 -25 -121 -43 -133
-6 -3 -11 -11 -11 -16 0 -6 4 -7 10 -4 6 4 7 -2 1 -17 -10 -29 -25 -192 -24
-275 0 -35 -4 -63 -9 -63 -5 0 -5 -8 1 -17 5 -10 13 -45 17 -78 4 -33 9 -62 9
-65 1 -3 5 -18 9 -35 4 -16 11 -37 15 -45 5 -9 12 -31 16 -50 4 -19 11 -41 15
-50 4 -8 27 -55 50 -103 24 -48 43 -94 43 -102 0 -8 3 -15 7 -15 4 0 17 -24
31 -52 13 -29 34 -70 46 -90 13 -21 20 -45 17 -55 -4 -12 -3 -14 3 -6 6 9 15
-3 28 -37 10 -27 23 -47 27 -44 4 3 8 -4 8 -15 0 -11 4 -22 9 -25 5 -3 21 -29
36 -58 15 -29 36 -62 46 -74 11 -11 17 -22 15 -25 -2 -2 16 -31 40 -64 24 -33
53 -77 64 -97 11 -21 25 -38 30 -38 6 0 18 -13 28 -30 10 -16 39 -52 65 -80
26 -28 47 -55 47 -60 0 -11 47 -58 181 -180 51 -47 99 -93 108 -102 8 -10 19
-18 23 -18 11 0 101 -62 119 -82 9 -10 20 -18 25 -18 5 0 27 -12 49 -27 22
-15 47 -28 55 -30 8 -1 20 -9 26 -17 6 -9 17 -16 25 -16 8 0 25 -9 39 -20 14
-11 33 -20 43 -20 9 0 17 -4 17 -10 0 -5 12 -10 26 -10 15 0 34 -8 43 -17 9
-10 23 -19 31 -20 38 -4 66 -14 75 -25 6 -7 19 -14 30 -15 29 -2 57 -9 111
-28 27 -9 54 -18 59 -19 6 -1 16 -5 23 -9 6 -5 12 -6 12 -4 0 2 19 1 43 -4 23
-5 65 -11 92 -14 28 -4 57 -9 65 -12 8 -3 102 -7 208 -9 105 -1 196 -5 200 -8
5 -3 31 -8 58 -12 27 -3 51 -8 54 -9 3 -2 41 1 84 6 63 8 88 16 122 41 44 32
47 36 59 97 16 77 13 120 -11 155 -13 19 -24 42 -24 50 0 9 -4 16 -9 16 -14 0
-115 99 -109 106 3 3 -15 27 -41 54 -71 75 -101 108 -101 114 0 2 -22 27 -50
54 -27 27 -50 54 -50 60 0 6 -21 30 -46 54 -25 24 -53 55 -63 70 -9 14 -42 55
-74 90 -81 90 -170 192 -187 216 -8 11 -39 45 -67 76 -29 31 -53 60 -53 64 0
4 -20 26 -45 49 -24 23 -52 55 -62 70 -9 15 -36 48 -60 71 -24 24 -43 48 -43
53 0 5 -23 32 -51 59 -28 27 -48 54 -44 60 4 6 3 10 -2 9 -20 -3 -30 3 -47 31
-9 17 -33 47 -51 68 -112 122 -129 145 -110 139 11 -3 36 -8 55 -11 19 -3 46
-9 60 -12 14 -3 35 -6 48 -7 14 -1 51 -28 92 -66 38 -37 111 -104 161 -151 51
-47 113 -105 139 -130 42 -39 154 -144 268 -248 43 -40 227 -212 315 -296 34
-32 89 -83 122 -113 33 -31 59 -60 57 -65 -1 -5 1 -7 6 -4 14 8 103 -81 96
-97 -3 -8 -1 -18 5 -22 7 -4 8 0 4 11 -11 29 8 13 161 -131 29 -27 69 -65 89
-83 20 -18 37 -37 37 -42 0 -6 6 -10 14 -10 18 0 96 72 96 88 0 7 5 12 10 12
6 0 10 7 10 15 0 9 6 12 17 8 11 -5 14 -3 8 6 -4 8 1 24 12 39 11 15 23 40 27
55 3 15 10 26 15 23 9 -6 10 3 12 114 0 47 -6 119 -15 160 -8 41 -17 89 -20
105 -3 17 -10 46 -15 65 -34 120 -52 187 -56 200 -3 8 -11 39 -17 68 -7 28
-15 52 -19 52 -4 0 -10 18 -14 40 -4 22 -10 40 -15 40 -4 0 -11 15 -15 33 -4
17 -9 34 -10 37 -1 3 -5 14 -9 25 -28 74 -40 105 -57 138 -11 22 -17 42 -14
47 2 4 -4 15 -15 25 -11 10 -20 23 -20 30 0 7 -11 25 -25 41 -13 15 -22 30
-20 32 2 2 -7 16 -21 31 -13 14 -27 35 -30 45 -4 11 -17 29 -30 41 -13 12 -24
25 -24 29 0 6 -36 55 -80 108 -8 10 -35 43 -60 73 -25 31 -90 101 -146 158
-56 56 -106 112 -113 125 -7 12 -16 20 -22 17 -5 -4 -16 1 -25 9 -9 9 -11 16
-4 16 6 0 9 4 5 10 -3 5 -12 7 -20 4 -8 -3 -36 16 -67 46 -53 52 -160 130
-222 162 -18 9 -38 23 -45 32 -8 9 -21 16 -31 16 -10 0 -23 7 -30 15 -11 14
-159 89 -170 87 -3 -1 -14 5 -25 12 -11 7 -35 17 -53 20 -17 4 -35 12 -38 18
-4 7 -2 8 4 4 7 -4 12 -3 12 1 0 5 -17 9 -37 10 -45 1 -63 5 -83 18 -8 5 -19
11 -25 12 -5 1 -28 7 -50 13 -71 19 -79 21 -127 27 -27 3 -48 9 -48 12 0 4
-12 6 -27 5 -16 0 -45 3 -65 8 -62 13 -348 28 -348 18z"/>
<path d="M22215 20632 c-2 -2 -30 -5 -63 -7 -33 -1 -66 -6 -73 -10 -8 -6 -10
-4 -4 5 6 10 4 11 -6 4 -8 -5 -25 -10 -39 -10 -14 -1 -25 -3 -25 -4 0 -2 -16
-4 -36 -5 -19 -1 -40 -4 -45 -7 -5 -4 -30 -9 -54 -13 -65 -10 -64 -10 -75 -17
-6 -3 -28 -10 -50 -14 -52 -10 -54 -11 -110 -34 -44 -18 -60 -23 -69 -21 -5 1
-16 -5 -26 -14 -10 -9 -21 -15 -26 -13 -5 1 -19 -3 -31 -10 -13 -7 -23 -10
-23 -7 0 3 -12 -2 -27 -12 -14 -9 -32 -18 -40 -19 -8 -2 -23 -10 -33 -19 -10
-9 -26 -18 -35 -19 -9 -1 -21 -9 -26 -17 -5 -8 -9 -10 -9 -6 0 4 -20 -6 -44
-23 -25 -16 -51 -30 -59 -30 -9 0 -17 -3 -19 -7 -4 -11 -84 -62 -100 -65 -7
-2 -16 -7 -20 -13 -4 -5 -11 -10 -15 -10 -14 0 -103 -66 -103 -76 0 -6 -5 -7
-10 -4 -6 3 -13 -1 -16 -9 -3 -8 -45 -42 -92 -75 -48 -32 -94 -68 -103 -78
-18 -21 -82 -77 -89 -79 -18 -3 -39 -17 -35 -24 3 -4 -10 -18 -29 -30 -18 -13
-43 -38 -55 -56 -13 -18 -31 -36 -40 -39 -16 -5 -41 -48 -41 -71 0 -6 -6 -14
-14 -17 -7 -3 -24 -27 -36 -54 -13 -26 -33 -61 -44 -78 -12 -16 -21 -32 -22
-35 -3 -15 -39 -88 -60 -121 -13 -21 -24 -45 -24 -53 0 -8 -7 -16 -15 -20 -8
-3 -15 -14 -15 -25 0 -11 -4 -22 -9 -26 -5 -3 -12 -19 -16 -35 -4 -17 -11 -30
-16 -30 -5 0 -9 -8 -9 -19 0 -10 -7 -24 -15 -31 -8 -7 -12 -16 -9 -22 3 -5 -1
-19 -8 -31 -8 -12 -20 -42 -28 -67 -8 -25 -21 -50 -30 -57 -8 -6 -12 -14 -9
-18 4 -3 -4 -36 -17 -72 -13 -37 -22 -68 -19 -71 2 -3 -2 -17 -9 -31 -55 -107
-54 -464 1 -486 14 -5 124 69 159 107 12 13 61 50 109 83 48 32 92 67 99 77 6
10 19 18 28 18 10 0 18 6 18 13 0 14 60 54 60 40 0 -4 5 0 11 10 6 9 14 15 20
12 5 -4 9 -1 9 5 0 5 32 33 70 61 39 28 70 56 70 61 0 5 4 7 9 4 5 -3 12 1 15
10 4 9 9 14 13 11 6 -7 86 48 137 95 44 41 146 111 146 101 0 -4 8 2 18 13 25
32 262 195 273 189 5 -4 9 0 9 7 0 7 17 24 38 37 20 14 60 42 89 64 29 21 59
40 67 41 8 1 70 40 138 87 67 46 126 83 130 82 4 -2 8 2 8 9 0 6 3 8 6 5 4 -4
19 2 34 13 16 11 34 20 41 20 7 0 20 7 29 15 10 9 27 18 40 20 13 2 31 12 40
20 10 9 25 17 33 19 8 1 26 10 41 20 15 10 30 15 34 12 3 -3 13 1 23 10 9 8
23 16 31 18 7 1 19 5 25 9 7 5 23 10 35 13 13 3 28 6 33 8 6 1 21 8 35 16 14
7 27 13 30 13 8 -1 34 8 53 18 9 5 17 7 17 5 0 -2 -36 -42 -80 -87 -44 -46
-80 -79 -80 -74 0 5 -14 -10 -31 -33 -17 -23 -34 -42 -39 -42 -5 0 -21 -12
-37 -28 -15 -15 -47 -42 -70 -60 -23 -18 -64 -54 -90 -80 -26 -25 -54 -47 -62
-48 -12 -2 -38 -25 -120 -104 -14 -15 -44 -39 -66 -55 -22 -16 -64 -52 -93
-80 -30 -27 -58 -49 -63 -48 -5 2 -9 -3 -9 -11 0 -8 -9 -17 -19 -21 -11 -3
-42 -27 -69 -53 -102 -96 -156 -142 -169 -142 -7 0 -10 -7 -7 -15 4 -8 1 -15
-5 -15 -11 0 -51 -36 -182 -162 -38 -38 -72 -68 -75 -68 -3 0 -16 -12 -28 -27
-18 -24 -50 -60 -151 -167 -11 -12 -21 -26 -22 -30 -1 -5 -13 -16 -28 -26 -15
-10 -41 -38 -59 -64 -18 -25 -36 -43 -40 -39 -3 3 -6 -2 -6 -13 0 -11 -9 -25
-20 -32 -11 -6 -32 -31 -46 -54 -15 -23 -42 -57 -60 -76 -19 -19 -34 -43 -34
-54 0 -10 -4 -18 -10 -18 -5 0 -10 -8 -10 -18 0 -11 -9 -27 -20 -37 -11 -10
-18 -20 -15 -23 3 -3 0 -11 -6 -18 -12 -14 -5 -45 8 -43 4 1 10 0 13 -1 3 -1
12 -3 20 -5 8 -1 49 -13 90 -26 41 -12 86 -23 100 -25 14 -1 26 -3 28 -4 1 -1
7 -4 12 -5 6 -1 11 -3 13 -5 1 -1 25 -4 52 -6 97 -8 110 -10 120 -16 6 -3 19
-4 30 -2 11 2 35 -1 52 -6 18 -4 35 -5 38 0 3 4 26 7 51 6 25 -1 47 1 49 4 2
4 19 6 37 5 18 -1 37 0 42 3 5 3 30 7 55 8 42 3 86 10 86 14 0 2 25 8 65 16
49 9 64 12 70 15 3 1 10 3 15 4 6 1 17 5 25 8 18 6 92 30 103 33 4 1 10 3 15
4 4 2 12 4 17 4 6 1 19 7 30 13 11 6 22 11 25 11 6 1 32 9 58 19 9 3 22 7 27
8 9 3 118 44 173 66 65 26 78 32 94 40 10 5 22 9 28 9 6 0 22 8 37 17 14 10
32 18 40 19 8 2 23 10 33 19 9 9 22 15 27 13 10 -3 83 43 83 53 0 4 26 26 57
50 32 23 86 70 121 103 142 136 272 269 272 278 0 5 4 6 10 3 5 -3 12 5 15 17
3 13 19 32 35 43 17 11 30 26 30 33 0 6 4 12 9 12 6 0 20 18 32 40 13 22 27
40 32 40 14 0 37 27 29 35 -4 3 0 12 8 18 25 20 87 106 106 147 4 8 13 22 20
30 11 14 31 48 91 165 28 55 57 122 59 136 0 9 5 23 10 30 10 16 43 130 51
174 2 17 7 37 10 45 4 8 7 24 9 35 1 11 9 70 19 130 19 123 23 402 8 500 -16
95 -43 150 -97 195 -27 22 -54 40 -61 40 -6 0 -20 9 -30 20 -10 11 -20 18 -23
15 -3 -3 -14 2 -24 12 -10 9 -18 12 -18 8 0 -4 -9 0 -20 10 -11 10 -20 15 -20
10 0 -4 -6 -3 -12 2 -14 11 -212 80 -249 87 -13 3 -25 5 -26 7 -2 1 -7 3 -13
4 -5 1 -11 4 -12 5 -2 1 -19 3 -38 5 -19 2 -60 8 -90 15 -30 7 -82 13 -115 15
-33 1 -60 4 -60 5 0 4 -166 5 -170 2z"/>
<path d="M4656 20173 c-3 -4 -34 -7 -68 -9 -35 -1 -70 -4 -78 -7 -14 -5 -107
-17 -157 -21 -12 0 -19 -3 -17 -6 5 -4 -19 -12 -101 -34 -39 -10 -70 -23 -140
-57 -98 -48 -114 -58 -167 -102 -15 -12 -39 -31 -54 -42 -14 -11 -47 -42 -73
-69 -25 -26 -57 -60 -71 -75 -14 -14 -27 -30 -29 -36 -2 -5 -15 -28 -29 -50
-31 -49 -82 -151 -87 -173 -2 -10 -13 -52 -24 -94 -22 -84 -17 -125 19 -171
11 -14 20 -30 20 -35 0 -19 155 -169 210 -204 59 -37 130 -64 195 -73 22 -3
46 -8 54 -11 14 -5 120 -21 201 -31 38 -4 215 -7 368 -5 23 1 48 5 55 9 13 8
24 11 77 20 19 3 46 10 60 16 14 6 30 12 35 12 15 3 67 23 87 35 10 6 25 10
33 10 8 0 15 5 15 10 0 6 9 10 20 10 11 0 20 5 20 10 0 6 5 10 10 10 22 0 201
139 245 190 16 19 39 44 50 55 11 12 32 39 47 61 15 21 43 57 63 79 66 73 73
124 22 173 -18 18 -44 34 -57 37 -12 2 -25 7 -28 10 -3 2 -11 0 -19 -6 -7 -6
-46 -13 -86 -15 -39 -2 -92 -6 -117 -10 -25 -3 -65 -8 -90 -9 -25 -2 -59 -6
-77 -9 -19 -4 -35 -2 -39 5 -5 8 -8 8 -13 0 -4 -6 -42 -13 -85 -16 -43 -3 -87
-7 -99 -10 -12 -2 -56 -7 -97 -11 -149 -12 -166 -13 -205 -18 -22 -2 -44 -5
-50 -6 -24 -5 -65 1 -65 10 0 23 60 63 98 65 21 1 47 7 58 12 10 5 39 11 64
12 24 1 49 6 56 11 6 6 35 13 63 16 29 3 70 12 91 19 21 7 40 11 43 9 3 -3 22
0 44 6 21 6 61 15 88 20 28 4 82 15 120 25 39 9 83 18 99 21 16 2 45 8 65 14
20 5 54 12 76 15 38 6 106 21 132 30 14 5 -7 105 -27 129 -6 9 -9 20 -5 26 4
6 3 9 -2 8 -4 -2 -28 11 -53 28 -49 34 -120 69 -163 79 -15 4 -27 11 -27 17 0
5 -4 7 -9 4 -5 -3 -48 8 -96 24 -48 16 -97 31 -109 33 -12 1 -26 6 -33 10 -6
4 -60 10 -120 13 -59 3 -113 7 -120 9 -6 2 -14 1 -17 -2z"/>
<path d="M24805 18830 c-4 -6 -23 -7 -45 -4 -22 4 -47 3 -57 -1 -10 -4 -35 -7
-55 -6 -21 2 -38 -1 -38 -6 0 -4 -36 -8 -81 -9 -52 0 -84 -5 -88 -13 -6 -8
-20 -10 -45 -6 -25 5 -36 4 -36 -5 0 -7 -8 -9 -19 -5 -11 3 -22 2 -25 -3 -3
-5 -37 -12 -76 -16 -38 -4 -70 -12 -70 -17 0 -6 -9 -7 -21 -4 -15 5 -19 4 -15
-4 7 -10 -17 -14 -90 -15 -14 0 -20 -5 -17 -13 3 -7 3 -13 1 -13 -34 0 -126
-26 -138 -38 -8 -10 -26 -17 -40 -17 -14 0 -33 -7 -44 -17 -17 -16 -20 -16
-44 0 -15 9 -23 11 -19 5 5 -8 3 -13 -7 -13 -9 0 -16 -4 -16 -10 0 -5 -16 -12
-35 -16 -19 -3 -35 -10 -35 -14 0 -4 -18 -10 -40 -14 -22 -3 -40 -10 -40 -15
0 -5 -16 -12 -35 -15 -19 -4 -35 -11 -35 -15 0 -5 -12 -12 -26 -15 -14 -4 -38
-18 -52 -31 -15 -14 -34 -25 -42 -25 -8 0 -27 -11 -42 -25 -15 -14 -30 -25
-33 -25 -7 0 -28 -16 -67 -52 -16 -16 -37 -28 -47 -28 -10 0 -23 -11 -29 -25
-6 -14 -18 -25 -27 -25 -8 0 -15 -4 -15 -9 0 -5 -9 -12 -20 -16 -10 -3 -54
-40 -96 -81 -42 -40 -80 -74 -84 -74 -4 0 -31 -22 -59 -50 -28 -27 -59 -50
-68 -50 -9 0 -13 -3 -10 -6 7 -8 -31 -44 -45 -44 -5 0 -7 -4 -4 -9 3 -5 -3
-11 -14 -14 -11 -3 -23 -13 -27 -23 -8 -20 -59 -74 -71 -74 -4 0 -12 -10 -17
-22 -6 -14 -18 -23 -32 -22 -19 0 -21 -4 -16 -33 5 -29 2 -35 -15 -40 -19 -5
-72 -94 -72 -121 0 -7 -4 -12 -10 -12 -5 0 -10 -7 -10 -15 0 -8 5 -15 10 -15
14 0 12 -36 -2 -52 -7 -7 -18 -28 -25 -47 -10 -27 -10 -36 1 -47 8 -7 17 -41
21 -74 4 -33 11 -60 16 -60 5 0 9 -7 9 -16 0 -27 24 -41 85 -47 47 -5 63 -3
77 10 14 13 20 13 33 3 8 -7 15 -8 15 -2 0 13 39 25 73 23 17 -2 34 4 41 14
11 15 15 16 34 4 19 -12 23 -11 36 7 13 18 23 20 66 16 33 -3 50 -1 50 6 0 7
11 9 30 6 18 -4 36 -1 45 6 8 7 22 9 32 6 9 -4 20 -1 24 5 4 7 29 12 57 13 35
1 48 5 45 14 -4 9 5 11 31 8 22 -3 36 -1 36 6 0 7 14 8 40 4 26 -4 40 -2 40 5
0 6 10 9 23 8 20 -2 39 1 130 17 15 3 25 10 21 15 -3 5 0 9 5 9 6 0 11 -4 11
-10 0 -14 28 -12 32 2 6 17 157 38 183 25 11 -5 16 -6 12 -1 -10 11 70 34 91
27 9 -4 13 -2 9 4 -4 7 16 13 53 17 33 4 62 10 64 15 3 4 19 6 36 3 18 -2 30
0 30 7 0 7 15 9 45 4 33 -4 45 -2 45 7 0 9 11 11 38 8 24 -4 42 -1 50 8 7 8
28 14 47 14 19 0 35 5 35 10 0 7 13 8 35 4 21 -4 35 -2 35 4 0 15 83 23 92 9
6 -9 8 -9 8 0 0 6 21 15 48 19 26 3 52 11 59 16 6 5 22 6 35 3 15 -4 30 1 44
14 20 18 23 18 39 3 10 -9 15 -12 12 -6 -9 15 52 25 75 13 9 -5 26 -9 37 -9
10 0 21 -4 23 -10 2 -5 12 -11 23 -13 11 -2 31 -9 45 -14 14 -6 32 -8 40 -6
13 4 13 4 0 -6 -8 -6 -31 -11 -50 -11 -47 0 -81 -10 -74 -21 3 -5 2 -9 -3 -8
-19 5 -83 -14 -83 -24 0 -8 -3 -8 -11 0 -8 8 -20 6 -42 -6 -18 -9 -35 -20 -38
-25 -4 -5 -19 -6 -33 -2 -17 4 -35 1 -49 -9 -12 -8 -29 -15 -39 -15 -10 0 -18
-4 -18 -10 0 -5 -15 -10 -33 -10 -18 0 -42 -7 -53 -15 -12 -8 -24 -12 -27 -8
-4 3 -12 1 -19 -5 -7 -6 -33 -12 -57 -15 -24 -2 -46 -10 -51 -16 -4 -7 -27
-15 -51 -18 -24 -3 -49 -10 -56 -15 -7 -5 -17 -7 -23 -3 -6 4 -19 -2 -28 -13
-12 -14 -26 -18 -49 -15 -21 4 -38 0 -48 -11 -9 -9 -21 -13 -27 -10 -6 4 -17
-1 -24 -11 -10 -13 -21 -16 -45 -11 -24 4 -36 1 -48 -12 -9 -11 -26 -18 -38
-17 -12 1 -20 -2 -18 -5 3 -4 -19 -10 -47 -13 -28 -4 -55 -11 -58 -17 -4 -7
-26 -14 -49 -17 -22 -3 -41 -10 -41 -16 0 -5 -13 -7 -32 -3 -17 3 -29 3 -25 0
3 -4 -1 -13 -10 -22 -11 -11 -20 -13 -32 -6 -18 11 -51 7 -51 -6 0 -4 -16 -11
-35 -14 -20 -4 -33 -11 -30 -17 4 -5 0 -9 -9 -9 -8 0 -17 6 -20 13 -4 9 -8 9
-11 1 -3 -7 -16 -9 -28 -6 -12 3 -19 1 -15 -3 9 -10 -40 -37 -53 -29 -5 3 -9
0 -9 -7 0 -7 -12 -10 -32 -7 -21 4 -45 -2 -68 -15 -19 -11 -57 -24 -84 -28
-27 -5 -52 -12 -55 -16 -12 -16 -71 -44 -71 -34 0 16 -36 13 -50 -4 -7 -8 -23
-15 -36 -15 -13 0 -24 -4 -24 -9 0 -5 -18 -7 -40 -5 -22 3 -40 1 -40 -5 0 -5
-13 -12 -30 -16 -16 -4 -30 -11 -30 -16 0 -5 -6 -9 -13 -9 -8 0 -24 -9 -37
-20 -13 -11 -19 -20 -15 -20 5 0 3 -6 -3 -12 -10 -10 -15 -10 -23 2 -8 11 -9
9 -5 -12 3 -15 1 -28 -5 -30 -6 -2 -13 -24 -16 -48 -3 -25 -10 -50 -15 -57
-11 -13 -1 -73 12 -73 4 0 13 -15 21 -32 7 -18 19 -37 26 -41 7 -4 13 -14 13
-22 0 -7 14 -16 31 -20 23 -5 28 -10 20 -18 -17 -17 -13 -22 21 -24 17 -1 34
-6 37 -11 3 -5 18 -12 34 -16 15 -3 27 -13 27 -21 0 -8 12 -18 27 -21 43 -11
76 -31 61 -37 -7 -3 4 -6 24 -6 45 -1 96 -29 100 -56 2 -14 9 -19 26 -17 12 2
22 -2 22 -7 0 -6 12 -11 26 -11 28 0 56 -22 52 -41 -2 -8 16 -16 50 -22 28 -5
52 -13 52 -18 0 -5 7 -9 15 -9 8 0 15 -4 15 -10 0 -5 13 -10 30 -10 32 0 100
-29 100 -42 0 -4 16 -8 35 -8 19 0 35 -4 35 -9 0 -5 13 -12 30 -16 16 -4 32
-11 35 -16 4 -5 19 -9 36 -9 16 0 29 -4 29 -10 0 -5 6 -10 14 -10 8 0 16 -3
19 -7 2 -5 2 -2 1 5 -2 7 7 12 24 12 21 0 24 -2 12 -10 -12 -8 -9 -10 13 -10
15 0 27 -4 27 -9 0 -5 28 -12 63 -16 34 -4 65 -12 70 -19 5 -8 10 -7 16 3 10
16 60 7 74 -12 6 -9 10 -9 14 1 7 17 52 15 59 -3 7 -18 50 -20 58 -2 4 8 8 9
11 1 6 -11 88 -9 107 2 5 3 15 1 22 -5 10 -8 35 -9 82 -4 38 5 86 6 106 2 20
-3 35 -2 32 2 -2 4 22 10 53 13 153 15 222 26 260 39 24 8 40 11 37 6 -3 -5 2
-9 10 -9 9 0 16 4 16 9 0 5 14 12 30 16 17 4 28 11 24 16 -3 5 -1 9 5 9 5 0
11 -6 14 -12 3 -10 14 -8 43 7 21 11 41 23 44 26 10 13 50 20 50 10 0 -6 7
-11 16 -11 8 0 13 4 10 9 -3 5 10 12 29 15 20 4 33 11 30 15 -2 5 15 12 40 16
25 3 43 10 40 15 -3 4 14 11 37 15 23 4 48 14 56 21 7 8 25 14 38 14 14 0 32
7 40 15 9 8 24 15 35 15 10 0 19 4 19 9 0 10 39 27 53 23 4 -1 7 3 7 9 0 7 10
9 25 7 13 -3 22 -2 20 2 -9 15 32 49 68 55 20 4 37 11 37 15 0 5 14 11 30 15
17 4 30 10 30 15 0 16 32 40 54 40 12 0 28 9 36 19 7 11 17 18 22 15 4 -3 8 0
8 5 0 6 7 11 15 11 9 0 18 7 21 15 4 8 13 15 21 15 8 0 12 4 9 9 -4 5 13 12
36 16 26 5 49 16 61 31 10 13 27 24 38 24 10 0 19 5 19 10 0 6 7 10 15 10 9 0
18 7 21 15 4 8 14 15 24 15 10 0 27 11 38 25 11 14 25 25 30 25 6 0 15 6 19
14 4 8 19 16 33 18 17 2 26 10 28 26 2 12 10 22 17 22 16 0 65 46 65 60 0 5 8
15 19 22 10 7 21 23 25 34 4 12 16 24 26 27 13 3 22 17 26 36 5 25 10 30 25
26 14 -5 19 -1 19 14 0 11 4 22 10 26 5 3 6 13 3 22 -4 11 -3 14 5 9 8 -5 12
2 12 21 0 20 9 34 28 47 18 12 33 35 41 63 8 24 20 50 27 58 8 7 14 23 14 34
0 11 5 23 10 26 6 3 10 16 10 28 0 13 7 33 16 45 9 14 14 34 11 49 -6 32 11
95 24 88 5 -4 10 6 11 22 1 15 2 37 3 48 1 11 3 30 4 43 0 13 6 20 11 17 6 -3
10 3 10 14 0 12 5 21 10 21 15 0 12 21 -7 42 -9 11 -11 18 -5 18 7 0 12 11 12
25 0 14 -4 25 -10 25 -5 0 -10 10 -10 23 0 12 -9 39 -20 60 -13 23 -18 48 -15
65 3 15 2 21 -1 15 -10 -21 -26 -14 -19 8 5 15 -3 30 -37 62 -23 24 -59 63
-78 87 -19 25 -41 49 -48 54 -8 4 -20 23 -28 42 -11 26 -20 34 -40 34 -17 0
-28 7 -31 20 -3 11 -14 20 -24 20 -19 0 -43 33 -32 44 3 3 -1 6 -11 6 -22 0
-44 21 -39 37 2 6 -10 14 -26 18 -22 5 -31 13 -31 26 0 15 -7 19 -34 19 -25 0
-36 5 -41 19 -3 11 -21 26 -40 35 -21 10 -32 22 -29 30 4 9 -7 15 -35 20 -23
3 -41 11 -41 16 0 6 -9 10 -20 10 -13 0 -20 7 -20 20 0 20 -9 24 -42 21 -10
-1 -18 2 -18 8 0 5 -14 12 -30 16 -17 4 -28 11 -24 16 3 5 -12 9 -34 9 -24 0
-46 7 -60 20 -12 11 -30 20 -41 20 -11 0 -26 7 -35 15 -17 17 -30 20 -21 5 3
-5 1 -10 -4 -10 -6 0 -11 3 -11 8 0 8 -56 35 -85 39 -11 2 -21 8 -23 13 -2 6
-15 10 -28 10 -13 0 -24 3 -24 8 0 13 -123 47 -127 35 -4 -12 -58 10 -68 28
-4 5 -14 9 -23 9 -15 0 -15 -2 -2 -10 11 -7 5 -10 -23 -10 -21 0 -45 7 -53 15
-17 17 -44 20 -44 5 0 -5 -7 -10 -15 -10 -8 0 -15 5 -15 11 0 8 -12 10 -34 6
-19 -3 -36 -2 -38 2 -2 5 -29 10 -60 13 -31 2 -55 1 -52 -4 3 -4 -2 -8 -10 -8
-9 0 -16 5 -16 11 0 7 -16 8 -45 3 -30 -4 -45 -3 -45 5 0 14 -17 14 -25 1z"/>
<path d="M5345 18352 c-10 -10 -15 -11 -10 -3 6 10 4 12 -6 5 -16 -10 -49 -13
-166 -16 -46 -2 -83 -6 -83 -10 0 -4 -21 -7 -47 -7 -74 -1 -117 -6 -133 -16
-8 -5 -29 -10 -47 -12 -79 -7 -100 -11 -128 -23 -42 -18 -54 -20 -61 -8 -3 5
-15 2 -27 -9 -14 -12 -18 -13 -12 -3 7 12 5 12 -11 -1 -10 -9 -27 -15 -36 -14
-10 2 -20 -1 -24 -6 -3 -5 -16 -9 -30 -9 -13 0 -24 -4 -24 -8 0 -5 -18 -7 -40
-6 -22 1 -46 -3 -53 -10 -13 -13 -46 -15 -63 -4 -6 4 -19 -1 -28 -11 -10 -11
-25 -18 -34 -16 -9 1 -33 -6 -53 -16 -20 -10 -39 -15 -43 -12 -3 4 -6 -1 -6
-9 0 -11 -7 -14 -25 -10 -16 3 -33 -2 -45 -13 -11 -10 -20 -15 -20 -11 0 3
-13 0 -29 -8 -16 -9 -31 -12 -35 -9 -3 4 -6 -2 -6 -12 0 -10 -3 -15 -7 -12 -3
4 -15 0 -25 -10 -10 -9 -18 -12 -18 -8 0 5 -12 -2 -26 -16 -14 -13 -29 -22
-32 -20 -4 2 -12 -5 -17 -16 -6 -11 -18 -19 -28 -17 -9 1 -17 -4 -17 -12 0 -8
-3 -13 -7 -13 -23 4 -33 -3 -33 -22 0 -11 -4 -17 -10 -14 -5 3 -10 -1 -10 -10
0 -9 -4 -14 -9 -11 -5 3 -11 -3 -14 -14 -3 -13 -11 -18 -26 -15 -14 2 -21 -1
-21 -11 0 -8 -4 -12 -10 -9 -5 3 -10 -1 -10 -9 0 -9 -4 -16 -10 -16 -5 0 -10
-5 -10 -11 0 -15 -26 -39 -34 -32 -3 4 -6 -1 -6 -11 0 -9 -4 -14 -10 -11 -5 3
-10 0 -10 -8 0 -7 -13 -26 -30 -42 -16 -16 -30 -35 -30 -42 0 -7 -3 -12 -7
-12 -23 4 -33 -3 -33 -21 0 -11 5 -20 12 -20 6 0 0 -13 -15 -28 -15 -16 -24
-32 -20 -37 5 -4 2 -5 -4 -1 -8 4 -13 1 -13 -8 0 -9 -6 -15 -12 -14 -8 2 -14
-11 -16 -35 -2 -20 -7 -35 -13 -32 -5 4 -9 -1 -9 -10 0 -9 -4 -13 -10 -10 -5
3 -10 1 -10 -5 0 -16 -26 -40 -35 -32 -4 4 -5 -5 -1 -20 3 -16 2 -28 -3 -28
-4 0 -8 -12 -8 -26 0 -15 -6 -29 -12 -33 -8 -5 -7 -16 5 -39 12 -25 14 -49 10
-106 -5 -60 -4 -75 9 -79 9 -4 12 -13 9 -22 -5 -11 0 -18 14 -22 15 -4 24 -16
28 -42 4 -20 18 -51 32 -68 13 -18 19 -33 13 -33 -16 0 -14 -30 3 -36 8 -3 12
-12 9 -20 -3 -8 5 -17 21 -24 15 -5 26 -17 26 -29 0 -10 7 -24 15 -31 8 -7 15
-24 15 -37 0 -17 7 -27 20 -30 14 -4 17 -9 11 -17 -6 -7 -6 -17 -1 -26 6 -8
10 -11 10 -6 0 17 30 -17 30 -35 0 -10 12 -24 28 -31 18 -9 26 -20 24 -34 -2
-13 8 -28 28 -42 20 -15 30 -31 30 -48 0 -18 4 -25 14 -21 17 7 82 -58 67 -67
-22 -14 -8 -29 40 -40 7 -1 90 -72 251 -213 64 -57 121 -103 127 -103 5 0 17
-10 26 -22 8 -13 18 -22 20 -20 3 1 6 2 8 1 1 0 10 -2 21 -4 10 -2 32 -16 48
-32 16 -15 37 -28 46 -28 9 0 31 -10 47 -21 17 -12 33 -22 38 -23 4 -1 8 -1
10 -2 1 0 10 -2 19 -4 10 -2 25 -10 34 -19 8 -9 19 -14 23 -11 5 2 16 -4 26
-15 10 -11 31 -20 46 -20 15 0 30 -4 34 -9 3 -6 14 -8 25 -6 10 2 24 -3 31
-11 6 -8 19 -14 29 -14 9 0 20 -3 24 -7 4 -5 12 -9 17 -9 5 -1 11 -3 14 -4 3
-1 11 -3 18 -4 6 -1 11 -8 9 -16 -3 -12 -1 -12 8 -3 10 9 23 8 56 -2 24 -7 44
-11 44 -8 0 3 7 0 15 -7 8 -7 15 -9 15 -5 0 4 6 2 14 -4 10 -9 16 -9 21 -1 5
8 11 8 20 0 8 -7 19 -9 24 -6 5 4 12 2 15 -3 4 -5 14 -8 24 -6 9 1 28 -7 41
-19 13 -11 21 -16 18 -10 -10 17 40 24 53 9 6 -7 19 -12 28 -10 9 1 22 0 27
-4 17 -9 35 -10 41 0 3 5 14 4 26 -2 11 -6 31 -9 44 -6 14 2 27 0 30 -5 3 -4
9 -6 14 -3 5 3 12 1 15 -5 5 -8 12 -7 23 2 9 7 13 8 9 2 -3 -6 0 -11 8 -11 8
0 12 4 10 8 -8 13 23 18 34 5 11 -13 114 -16 127 -3 4 4 13 2 20 -4 8 -7 26
-8 46 -3 47 11 52 11 65 2 6 -5 14 -5 17 0 6 11 46 10 64 -1 7 -5 22 -5 35 -1
35 12 47 13 53 3 3 -5 11 -6 17 -2 7 4 30 8 52 10 141 8 174 11 186 19 8 5 22
9 32 10 9 1 19 3 22 4 3 1 13 3 23 4 9 1 22 4 28 8 6 4 22 9 37 12 15 2 32 8
39 13 7 4 19 8 27 10 8 1 17 5 20 10 6 8 14 11 51 16 11 2 23 6 26 10 4 4 13
2 21 -4 10 -9 13 -7 13 6 0 10 3 15 7 12 3 -4 14 0 24 9 12 11 19 12 24 4 5
-8 13 -6 26 6 10 9 19 14 19 9 0 -4 7 -2 15 5 8 7 15 9 15 5 0 -5 9 0 20 10
11 10 20 15 20 10 0 -4 7 -2 15 5 8 6 19 9 25 5 5 -3 10 -3 10 2 0 9 57 37 63
31 2 -2 11 5 21 15 10 9 21 15 26 12 4 -3 13 2 20 10 7 8 21 15 31 15 11 0 19
4 19 9 0 5 8 8 18 6 9 -1 25 4 35 13 9 8 17 11 17 7 0 -4 9 0 20 10 11 10 20
15 20 10 0 -4 6 -2 13 4 8 6 17 8 20 4 4 -3 7 1 7 11 0 9 4 15 9 12 5 -3 14 1
21 9 7 9 22 14 34 13 12 -2 24 5 31 18 6 11 18 20 27 18 16 -2 58 38 58 56 0
5 8 7 19 5 20 -4 60 32 80 73 7 12 16 20 20 17 10 -6 21 18 21 45 0 10 10 26
22 35 19 13 21 18 10 35 -14 23 -16 33 -3 26 5 -4 12 7 16 24 4 17 11 28 16
24 5 -3 9 2 9 10 0 8 -4 18 -10 21 -5 3 -10 11 -10 16 0 6 5 7 11 3 8 -5 10 1
7 19 -3 15 -1 24 4 21 5 -3 6 6 2 22 -9 34 -65 86 -80 73 -6 -5 -14 -6 -18 -2
-4 4 -24 8 -44 9 -20 1 -38 3 -39 4 -2 1 -6 3 -10 4 -5 1 -12 4 -18 7 -5 3
-37 5 -70 4 -33 -1 -64 1 -70 4 -17 9 -35 10 -40 0 -4 -5 -13 -5 -23 0 -29 16
-56 24 -82 25 -14 1 -31 5 -39 10 -11 7 -12 6 -6 -5 7 -11 6 -12 -6 -3 -8 6
-24 10 -37 8 -13 -2 -32 0 -42 6 -13 7 -21 7 -25 0 -5 -8 -11 -7 -21 1 -8 6
-14 8 -14 4 0 -4 -6 -3 -13 4 -10 8 -17 7 -27 -2 -10 -10 -11 -9 -5 3 8 13 6
13 -7 2 -11 -9 -18 -10 -23 -2 -4 6 -26 9 -51 6 -34 -3 -44 0 -44 11 0 12 -3
13 -14 4 -10 -8 -16 -9 -21 -1 -3 5 -26 9 -50 8 -24 0 -50 4 -58 10 -10 9 -17
8 -27 -1 -10 -10 -11 -9 -5 3 6 12 5 12 -5 3 -10 -9 -17 -9 -31 0 -15 9 -23 9
-38 0 -16 -10 -22 -8 -36 8 -11 12 -22 16 -29 10 -6 -5 -20 -7 -31 -5 -42 7
-70 13 -72 15 -2 1 -16 3 -33 4 -16 1 -31 3 -32 5 -2 1 -28 3 -58 6 -86 6
-109 9 -116 17 -4 3 -14 3 -23 -2 -15 -7 -33 -7 -46 -1 -3 1 -8 3 -12 4 -5 1
-15 6 -23 11 -21 13 -39 15 -45 4 -4 -5 -21 -3 -40 5 -21 9 -37 11 -40 5 -9
-14 -35 -11 -35 4 0 7 -9 13 -20 14 -11 1 -20 -2 -20 -7 0 -10 -19 -8 -38 4
-7 4 -25 5 -41 1 -16 -3 -32 -2 -35 4 -4 5 -15 8 -26 6 -11 -2 -22 0 -25 5 -3
5 -20 7 -37 5 -17 -3 -38 0 -45 6 -7 7 -13 8 -13 4 0 -4 -6 -2 -14 4 -10 9
-16 8 -26 -4 -12 -14 -15 -14 -32 2 -11 10 -21 18 -22 17 -36 -20 -46 -23 -51
-14 -4 6 -10 8 -15 5 -5 -3 -12 -1 -15 5 -5 7 -11 8 -19 1 -8 -7 -32 7 -81 50
-61 52 -99 95 -67 75 6 -3 13 -2 17 4 4 6 12 7 18 3 19 -12 47 -14 65 -4 9 5
26 5 39 0 14 -5 25 -4 29 2 4 6 14 3 27 -8 11 -10 17 -12 12 -4 -6 10 -4 12 6
5 18 -11 60 -13 53 -2 -3 4 8 8 25 8 16 0 32 -4 35 -8 5 -9 86 -10 101 -1 6 4
19 4 30 2 11 -3 38 -6 60 -6 22 -1 46 -6 53 -10 8 -6 12 -4 10 4 -3 14 18 16
44 5 10 -5 31 -3 48 2 16 6 32 7 35 2 3 -5 14 -7 25 -5 11 2 22 0 25 -5 3 -4
19 -6 35 -4 17 2 43 6 60 8 17 2 34 -2 41 -10 9 -12 15 -12 27 -2 13 11 14 11
7 -2 -7 -12 -6 -13 6 -4 8 5 21 10 29 9 8 -1 24 2 35 6 12 4 28 1 39 -7 11 -7
24 -10 29 -7 21 13 227 10 239 -4 5 -7 14 -10 19 -7 24 14 115 22 129 10 13
-11 35 -14 43 -6 6 7 125 6 144 -1 12 -4 24 -5 27 -1 4 7 107 9 114 2 5 -6 48
-6 57 0 9 6 31 6 38 0 9 -8 57 -9 57 -1 0 7 9 7 25 1 13 -5 27 -6 29 -1 7 10
53 8 63 -3 5 -5 2 -6 -6 -1 -9 5 -12 4 -8 -3 7 -11 32 -11 43 1 10 10 102 9
108 -1 5 -8 51 -9 66 -2 3 2 19 3 37 4 17 1 41 10 53 21 11 10 28 20 36 21 20
3 64 55 64 76 0 9 12 26 26 37 22 17 24 23 14 42 -7 12 -10 38 -6 58 3 22 2
31 -3 22 -7 -10 -11 -8 -17 10 -4 13 -9 31 -10 39 -2 8 -9 19 -17 25 -8 5 -14
21 -13 35 1 14 -5 25 -12 25 -18 0 -82 54 -82 69 0 7 -38 45 -85 84 -51 44
-82 77 -79 85 3 8 -2 20 -11 27 -8 7 -15 9 -15 4 0 -4 -16 7 -35 26 -20 19
-33 41 -31 49 4 14 -60 74 -113 106 -9 6 -32 26 -50 45 -18 19 -29 29 -25 21
4 -7 -8 -3 -26 10 -18 13 -36 34 -41 47 -5 13 -13 21 -18 18 -4 -3 -34 16 -64
43 -40 35 -62 48 -77 44 -14 -4 -22 1 -29 18 -5 13 -10 20 -10 16 -1 -5 -19 6
-41 23 -22 17 -40 29 -40 25 0 -4 -17 5 -37 21 -25 19 -38 24 -41 15 -3 -9
-11 -6 -27 9 -12 11 -35 23 -51 26 -16 3 -40 15 -52 27 -13 12 -32 21 -43 19
-10 -2 -19 2 -19 8 0 6 -4 9 -9 5 -5 -3 -12 -1 -16 5 -4 6 -10 8 -15 5 -5 -3
-11 -1 -15 4 -3 5 -14 8 -25 6 -12 -2 -24 4 -30 15 -6 11 -16 17 -25 14 -9 -4
-22 -1 -30 6 -8 7 -15 9 -15 5 0 -4 -6 -3 -12 2 -7 6 -22 9 -32 7 -11 -1 -31
3 -45 10 -14 7 -39 12 -54 11 -15 -1 -30 2 -33 6 -2 5 -11 6 -18 3 -8 -3 -17
-1 -21 5 -3 6 -16 11 -29 11 -12 0 -26 3 -30 7 -7 7 -35 11 -126 16 -31 2 -60
6 -66 9 -5 4 -33 5 -61 3 -29 -3 -54 -1 -57 4 -6 9 -105 6 -114 -4 -3 -2 -11
0 -17 5 -7 6 -23 9 -36 6 -13 -2 -29 0 -35 5 -6 5 -18 1 -29 -9z"/>
<path d="M19025 18178 c-11 -7 -36 -13 -55 -14 -19 0 -46 -4 -60 -8 -14 -4
-32 -9 -40 -11 -8 -2 -15 -4 -15 -5 0 -1 -9 -3 -20 -4 -49 -6 -201 -50 -216
-62 -8 -8 -28 -14 -42 -14 -16 0 -26 -5 -24 -12 1 -6 -7 -14 -18 -16 -11 -2
-28 -11 -37 -19 -9 -8 -21 -12 -26 -9 -5 3 -15 -1 -22 -9 -7 -8 -17 -15 -23
-15 -5 0 -17 -8 -26 -18 -9 -10 -35 -27 -58 -38 -23 -10 -43 -23 -43 -29 0 -5
-16 -21 -35 -34 -19 -13 -35 -27 -35 -32 0 -5 -7 -9 -15 -9 -8 0 -15 -5 -15
-11 0 -6 -27 -36 -60 -67 -33 -32 -60 -61 -60 -64 0 -4 -16 -23 -35 -42 -19
-20 -35 -39 -35 -43 0 -5 -13 -23 -29 -40 -16 -18 -35 -45 -42 -62 -7 -16 -22
-32 -32 -35 -13 -3 -17 -10 -14 -20 4 -9 2 -16 -3 -16 -5 0 -15 -11 -22 -24
-49 -90 -61 -112 -60 -116 0 -3 -4 -13 -10 -24 -21 -39 -65 -172 -62 -188 1
-10 -1 -18 -6 -18 -5 0 -11 -19 -15 -42 -4 -24 -11 -51 -17 -60 -6 -12 -5 -18
3 -18 8 0 8 -4 2 -12 -6 -7 -13 -24 -16 -38 -3 -14 -8 -36 -11 -50 -23 -93
-32 -285 -15 -296 5 -3 7 -10 4 -15 -4 -5 -1 -9 4 -9 6 0 11 -8 11 -19 0 -10
11 -26 24 -37 14 -10 23 -21 21 -25 -3 -3 8 -17 23 -30 28 -26 89 -34 84 -11
-1 7 5 12 13 12 8 0 15 4 15 10 0 5 16 24 35 43 19 19 35 39 35 46 0 7 5 9 11
6 6 -4 13 2 16 14 3 12 16 24 29 27 13 3 24 12 24 20 0 8 7 14 15 14 8 0 15 6
15 13 0 7 22 36 49 64 27 28 47 54 44 57 -4 3 1 6 10 6 9 0 17 4 17 10 0 5 27
37 60 70 33 33 60 64 60 68 0 11 63 57 73 54 5 -1 6 2 3 7 -4 5 6 22 21 38 16
16 33 38 40 48 6 11 16 19 22 18 6 -2 10 0 9 5 -4 11 35 52 49 52 7 0 13 6 13
14 0 8 9 17 19 21 12 4 18 12 14 21 -3 8 1 14 11 14 9 0 16 6 16 13 0 7 20 30
45 51 24 21 42 42 39 47 -3 5 2 9 10 9 9 0 16 4 16 9 0 22 51 58 103 72 63 18
63 19 10 -39 -13 -14 -23 -31 -23 -38 0 -8 -4 -14 -8 -14 -4 0 -16 -14 -26
-30 -9 -17 -20 -28 -24 -26 -4 2 -16 -13 -26 -35 -11 -21 -25 -39 -33 -39 -7
0 -13 -6 -13 -12 0 -7 -11 -26 -25 -42 -14 -16 -25 -33 -25 -38 0 -15 -27 -38
-35 -30 -5 4 -5 2 -2 -4 4 -7 0 -17 -8 -24 -8 -7 -15 -19 -15 -26 0 -8 -7 -14
-15 -14 -14 0 -40 -45 -37 -62 1 -5 -5 -8 -13 -8 -9 0 -19 -8 -22 -17 -7 -18
-90 -130 -126 -171 -12 -12 -22 -30 -23 -39 -2 -10 -14 -26 -28 -36 -14 -10
-26 -24 -26 -32 0 -7 -7 -19 -16 -26 -9 -8 -27 -30 -39 -49 -13 -19 -32 -44
-42 -55 -11 -11 -18 -26 -15 -33 2 -6 -3 -12 -12 -12 -8 0 -22 -13 -30 -28 -8
-16 -22 -35 -31 -42 -9 -7 -23 -27 -32 -43 -18 -35 -21 -119 -5 -125 7 -2 12
-9 12 -15 1 -20 52 -51 87 -51 18 -1 33 -5 33 -9 0 -5 5 -5 11 -2 6 4 32 9 57
11 26 1 58 6 72 10 24 7 50 10 148 19 64 6 291 63 338 86 22 10 46 19 52 19 7
0 12 5 12 10 0 6 7 10 16 10 8 0 22 7 31 15 8 8 19 13 24 9 5 -3 12 2 15 10 3
9 15 16 25 16 10 0 19 4 19 9 0 5 14 14 31 20 17 6 28 15 24 21 -3 5 1 10 9
10 8 0 30 14 48 30 18 17 38 30 45 30 7 0 13 7 13 15 0 8 11 22 25 32 38 26
145 133 145 144 0 5 7 17 16 27 63 70 84 97 84 107 0 6 6 17 13 24 6 6 12 15
12 19 1 8 36 65 46 72 3 3 9 15 13 28 4 12 11 22 16 22 6 0 14 17 25 60 0 3
11 21 23 40 12 19 24 47 27 62 4 15 11 28 16 28 5 0 8 3 7 8 -1 4 4 23 11 42
8 19 13 38 13 42 -1 3 5 12 13 18 8 7 15 21 15 31 0 10 5 21 10 24 6 3 10 16
10 29 0 12 4 26 10 32 5 5 11 22 12 37 1 15 5 27 8 27 14 0 25 89 23 175 -2
117 -3 122 -18 175 -7 25 -13 47 -13 50 -2 23 -17 66 -25 71 -5 4 -10 18 -10
33 -1 14 -6 26 -10 26 -5 0 -5 5 -2 10 3 6 2 10 -3 10 -6 0 -13 15 -16 34 -4
23 -19 44 -42 63 -20 15 -44 35 -53 43 -29 26 -88 49 -110 43 -13 -3 -21 -1
-21 7 0 7 -6 10 -12 7 -7 -2 -24 0 -38 6 -14 6 -47 11 -75 13 -27 1 -72 5
-100 8 -29 3 -54 1 -62 -6 -9 -7 -13 -7 -13 2 0 8 -10 9 -31 5 -22 -5 -29 -4
-25 4 9 14 -4 14 -29 -1z"/>
<path d="M11139 18116 c-2 -2 -35 -7 -74 -11 -38 -4 -79 -8 -90 -9 -11 -1 -26
3 -34 8 -12 9 -13 8 -6 -3 6 -11 1 -13 -23 -9 -17 2 -29 1 -26 -4 5 -8 -9 -12
-80 -23 -88 -14 -206 -90 -206 -132 0 -7 -4 -13 -10 -13 -5 0 -12 -16 -16 -36
-4 -19 -12 -38 -18 -40 -7 -3 -13 -18 -14 -34 -3 -39 -19 -80 -32 -80 -5 0
-10 -5 -10 -11 0 -5 5 -7 11 -3 8 4 8 1 1 -12 -19 -37 -35 -184 -28 -257 13
-132 30 -184 154 -457 8 -19 23 -46 32 -60 10 -14 20 -38 24 -54 4 -17 17 -44
29 -60 12 -17 22 -33 22 -36 0 -3 14 -25 31 -50 17 -25 34 -55 38 -67 4 -11
13 -24 21 -27 8 -3 15 -11 15 -19 0 -7 18 -31 40 -52 22 -21 40 -44 40 -50 0
-13 189 -205 202 -205 4 0 8 -5 8 -11 0 -5 4 -8 9 -4 6 3 13 -1 18 -8 10 -16
100 -77 114 -77 5 0 9 -5 9 -10 0 -6 10 -15 23 -20 12 -6 36 -19 53 -29 16
-10 41 -22 55 -26 13 -4 42 -15 64 -25 154 -68 309 -103 450 -102 22 0 80 -6
130 -15 148 -24 207 -5 234 76 14 43 14 72 -1 108 -6 15 -11 30 -11 33 1 3
-14 16 -32 30 -18 14 -41 40 -51 58 -9 18 -32 48 -51 67 -18 19 -33 37 -33 40
0 3 -13 19 -30 35 -16 16 -30 36 -30 44 0 7 -16 26 -35 42 -23 18 -33 34 -30
43 3 9 3 12 -1 9 -10 -10 -65 62 -57 75 3 5 1 7 -5 3 -6 -3 -21 8 -34 26 -12
18 -32 42 -43 53 -11 11 -29 34 -39 50 -11 17 -25 37 -32 45 -60 67 -104 122
-104 128 0 4 -16 25 -35 47 -20 22 -41 47 -48 55 -8 8 -35 43 -61 78 -26 34
-51 62 -56 62 -5 0 -12 10 -15 23 -4 12 -19 35 -34 51 -23 25 -23 28 -6 23 11
-4 42 -11 68 -17 47 -10 65 -27 412 -377 200 -202 361 -372 358 -378 -4 -5 -2
-7 2 -2 11 9 104 -81 101 -97 -2 -6 -1 -7 2 -3 2 4 39 -28 82 -73 43 -44 83
-80 88 -80 7 0 28 22 102 109 11 13 20 30 20 38 0 8 4 12 9 9 14 -9 4 205 -14
281 -9 40 -13 78 -9 85 4 7 3 9 -1 5 -10 -9 -47 111 -40 131 3 7 1 11 -4 7 -5
-3 -12 14 -16 37 -17 98 -106 302 -161 367 -13 16 -24 33 -24 39 0 5 -7 15
-15 22 -8 7 -12 16 -9 21 3 5 1 8 -4 7 -5 -2 -27 22 -47 52 -21 30 -54 71 -74
90 -20 19 -54 56 -76 82 -22 26 -46 48 -54 48 -8 0 -11 6 -7 16 3 8 2 13 -2
10 -5 -3 -26 12 -47 34 -66 67 -282 209 -340 224 -16 4 -35 16 -42 25 -8 12
-21 17 -36 14 -13 -3 -30 2 -38 9 -8 8 -34 20 -59 26 -25 7 -69 19 -98 27 -30
8 -102 19 -160 25 -59 6 -116 13 -128 15 -12 3 -23 3 -25 1z"/>
<path d="M13757 17803 c-47 -329 -59 -599 -59 -1348 0 -856 32 -1446 118
-2150 54 -450 151 -1069 249 -1600 24 -132 60 -330 80 -440 294 -1628 1023
-3462 1993 -5015 256 -410 371 -570 728 -1016 808 -1009 1237 -1490 1470
-1645 60 -40 150 -76 161 -65 4 3 -41 102 -99 219 -189 378 -258 547 -455
1107 -160 456 -505 1506 -612 1860 -205 682 -274 1377 -191 1937 58 399 189
766 363 1023 101 147 346 435 561 658 340 351 938 852 1679 1407 87 65 156
120 154 122 -2 2 -78 -41 -168 -96 -397 -240 -692 -357 -1109 -440 -391 -78
-631 -104 -950 -105 -259 0 -345 8 -518 49 -469 112 -1093 551 -1535 1080
-260 311 -834 1383 -1056 1971 -259 687 -593 1887 -737 2652 -10 50 -21 92
-24 92 -3 0 -23 -116 -43 -257z"/>
<path d="M16590 17858 c-45 -178 -222 -825 -300 -1100 -245 -855 -382 -1262
-646 -1924 -57 -144 -104 -267 -104 -273 0 -16 849 -1141 861 -1141 5 0 9 4 9
9 0 6 18 108 40 228 106 581 184 1219 222 1803 8 125 13 444 13 885 0 657 -1
712 -30 1148 -16 251 -32 457 -35 457 -4 0 -17 -42 -30 -92z"/>
<path d="M15025 17824 c-33 -8 -98 -33 -145 -56 -70 -33 -101 -57 -176 -132
-75 -75 -99 -106 -132 -176 -54 -111 -72 -191 -72 -320 0 -129 18 -209 72
-320 33 -70 57 -101 132 -176 75 -75 106 -99 176 -132 111 -54 191 -72 320
-72 129 0 209 18 320 72 70 33 101 57 176 132 75 75 99 106 132 176 54 111 72
191 72 320 0 129 -18 209 -72 320 -33 70 -57 101 -132 176 -75 75 -106 99
-176 132 -47 23 -114 48 -150 56 -82 20 -264 19 -345 0z"/>
<path d="M21207 15993 c-1 -1 -38 -4 -82 -8 -91 -7 -114 -10 -135 -18 -8 -3
-31 -8 -50 -11 -43 -6 -96 -20 -132 -35 -16 -6 -28 -8 -28 -5 0 2 -10 -1 -22
-8 -13 -6 -29 -13 -35 -15 -7 -2 -19 -4 -25 -6 -7 -2 -23 -9 -35 -15 -13 -7
-23 -10 -23 -7 0 3 -18 -6 -41 -21 -22 -14 -47 -23 -54 -20 -7 2 -16 -2 -19
-10 -3 -8 -12 -14 -19 -14 -19 0 -174 -94 -197 -120 -3 -3 -24 -22 -47 -42
-23 -20 -39 -39 -35 -42 3 -3 0 -6 -6 -6 -13 0 -214 -204 -221 -223 -2 -7 -10
-16 -18 -20 -8 -5 -18 -20 -24 -33 -5 -16 -13 -22 -21 -18 -8 5 -9 2 -5 -9 3
-9 2 -19 -3 -22 -17 -11 -53 -99 -42 -103 7 -2 7 -14 1 -35 -11 -39 12 -116
40 -134 19 -12 93 -1 116 16 5 5 18 7 28 6 9 -2 17 1 17 6 0 5 9 9 19 9 11 0
22 4 26 10 3 5 12 7 20 3 9 -3 21 -1 28 4 6 5 19 9 27 8 8 -1 27 5 42 12 15 7
36 13 48 13 12 0 19 4 16 9 -4 5 2 8 11 6 10 -1 25 1 34 6 10 5 21 3 28 -4 10
-9 12 -9 9 2 -2 7 5 15 15 17 24 5 39 10 60 17 9 4 25 10 35 14 9 3 22 7 27 8
6 1 12 3 15 5 3 1 19 4 35 5 17 1 41 7 55 15 14 7 25 12 25 11 0 -1 7 0 15 3
74 24 97 30 110 31 8 0 20 3 25 6 6 4 26 10 45 14 19 4 41 12 48 17 6 6 12 8
12 5 0 -3 15 0 33 7 17 8 40 12 50 11 9 -2 17 1 17 6 0 6 4 8 9 4 5 -3 12 -1
16 5 3 5 17 10 31 10 13 0 24 3 24 8 0 12 81 12 103 0 12 -7 31 -11 42 -11 11
1 4 -3 -15 -10 -19 -7 -45 -18 -57 -25 -13 -7 -23 -10 -23 -7 0 4 -13 -3 -28
-14 -16 -11 -39 -22 -53 -24 -13 -2 -46 -14 -74 -26 -27 -13 -55 -24 -61 -25
-6 -1 -22 -9 -36 -18 -13 -9 -35 -18 -49 -20 -13 -1 -27 -7 -30 -11 -3 -4 -16
-9 -27 -10 -12 -1 -22 -5 -22 -9 0 -4 -8 -8 -18 -8 -10 0 -22 -3 -26 -7 -4 -5
-11 -8 -14 -8 -4 -1 -18 -7 -32 -15 -14 -8 -34 -15 -44 -17 -11 -2 -24 -7 -30
-12 -6 -5 -28 -14 -48 -20 -21 -7 -38 -17 -38 -21 0 -5 -7 -7 -15 -4 -8 3 -27
-3 -42 -14 -15 -10 -36 -18 -45 -17 -10 2 -18 -1 -18 -6 0 -5 -3 -8 -7 -7 -5
1 -19 -4 -33 -12 -14 -7 -26 -13 -27 -12 -2 1 -32 -12 -66 -28 -35 -17 -73
-30 -83 -30 -11 0 -25 -5 -30 -10 -6 -6 -20 -12 -32 -15 -25 -4 -82 -45 -82
-57 0 -5 -4 -7 -8 -4 -4 2 -12 -11 -18 -30 -7 -21 -7 -34 -1 -34 5 0 4 -7 -3
-15 -10 -12 -7 -21 15 -51 16 -20 36 -39 46 -41 10 -3 16 -10 13 -17 -3 -7 6
-12 21 -14 14 -1 42 -12 63 -25 20 -13 47 -23 59 -22 13 1 32 -6 42 -16 11
-10 32 -21 47 -23 15 -3 31 -11 35 -18 5 -7 16 -13 26 -14 25 -1 76 -15 88
-24 6 -5 24 -11 40 -14 43 -7 78 -18 90 -26 6 -4 24 -6 40 -5 17 2 35 -2 42
-7 7 -6 18 -8 25 -5 7 2 21 0 31 -5 9 -5 17 -5 17 -1 0 10 71 10 87 0 6 -4 15
-3 18 3 5 8 11 8 19 1 7 -6 16 -7 20 -3 4 4 22 8 39 9 60 3 122 12 152 22 17
5 46 12 65 14 35 5 124 35 188 64 19 8 36 12 39 9 3 -3 26 9 51 26 25 17 51
31 59 31 7 0 13 4 13 9 0 4 6 8 13 8 6 0 32 13 56 29 25 17 48 28 53 25 4 -3
8 -1 8 4 0 5 19 22 43 37 23 16 46 34 50 42 5 7 12 11 16 9 4 -3 23 10 43 29
20 18 39 31 41 29 2 -3 15 7 28 21 13 13 29 25 34 25 8 0 45 30 110 89 28 24
115 149 115 164 0 5 12 33 26 63 14 30 28 69 31 87 3 18 9 39 13 48 5 9 6 26
3 37 -3 12 0 29 7 36 6 8 11 23 10 33 -1 10 -1 20 0 23 11 24 5 90 -11 116
-10 17 -19 38 -19 45 0 8 -31 45 -70 83 -38 37 -70 72 -70 77 0 5 -3 8 -7 7
-16 -3 -59 21 -73 41 -8 12 -20 21 -28 21 -7 0 -15 7 -18 15 -4 8 -9 13 -13
10 -4 -2 -23 6 -42 19 -19 13 -45 27 -59 31 -14 4 -33 14 -42 23 -10 8 -18 12
-18 8 0 -4 -10 -1 -22 6 -13 7 -30 13 -38 13 -20 2 -73 16 -85 24 -5 3 -16 7
-22 8 -7 2 -19 5 -25 7 -7 2 -28 7 -46 11 -18 4 -35 11 -37 15 -3 5 -19 6 -36
3 -17 -2 -36 1 -44 7 -8 7 -15 7 -19 1 -5 -7 -41 -8 -41 -1 0 2 -106 5 -108 3z"/>
<path d="M8955 15740 c-111 -21 -152 -32 -223 -60 -179 -72 -361 -197 -409
-282 -20 -35 -23 -50 -18 -97 40 -352 255 -653 605 -845 152 -83 425 -176 605
-206 89 -14 429 37 605 92 136 43 286 143 278 186 -2 10 -26 22 -68 35 -243
69 -776 243 -928 303 -37 15 -96 38 -132 52 -77 30 -243 119 -317 170 -29 19
-53 36 -53 37 0 3 109 -13 165 -25 33 -6 175 -40 315 -75 431 -107 542 -128
780 -151 117 -11 210 -14 253 -10 80 9 81 13 39 121 -86 216 -237 376 -547
577 -135 87 -184 107 -355 142 -202 42 -477 58 -595 36z"/>
<path d="M12090 15000 c-154 -32 -286 -94 -416 -195 -73 -56 -183 -177 -213
-234 -8 -14 -19 -29 -25 -33 -6 -5 -7 -8 -1 -8 6 0 5 -3 -1 -8 -15 -10 -38
-55 -69 -138 -88 -231 -88 -555 -2 -784 34 -90 59 -140 69 -140 5 0 6 -4 3
-10 -3 -5 -2 -10 3 -10 4 0 16 -15 25 -32 54 -109 235 -271 382 -342 159 -78
222 -91 430 -91 208 0 271 13 430 91 147 71 328 233 382 342 9 17 21 32 25 32
5 0 6 5 3 10 -3 6 -2 10 3 10 10 0 35 50 69 140 86 227 86 553 0 780 -34 90
-59 140 -69 140 -5 0 -6 5 -3 10 3 6 2 10 -3 10 -4 0 -16 15 -25 33 -54 108
-235 270 -382 341 -150 73 -215 88 -405 92 -91 1 -185 -1 -210 -6z"/>
<path d="M17820 14980 c-154 -32 -286 -94 -416 -195 -73 -56 -183 -177 -213
-234 -8 -14 -19 -29 -25 -33 -6 -5 -7 -8 -1 -8 6 0 5 -3 -1 -8 -15 -10 -38
-55 -69 -138 -88 -231 -88 -555 -2 -784 34 -90 59 -140 69 -140 5 0 6 -4 3
-10 -3 -5 -2 -10 3 -10 4 0 16 -15 25 -32 54 -109 235 -271 382 -342 159 -78
222 -91 430 -91 208 0 271 13 430 91 147 71 328 233 382 342 9 17 21 32 25 32
5 0 6 5 3 10 -3 6 -2 10 3 10 10 0 35 50 69 140 86 227 86 553 0 780 -34 90
-59 140 -69 140 -5 0 -6 5 -3 10 3 6 2 10 -3 10 -4 0 -16 15 -25 33 -54 108
-235 270 -382 341 -150 73 -215 88 -405 92 -91 1 -185 -1 -210 -6z"/>
<path d="M10490 12820 c19 -15 130 -101 245 -191 561 -434 1134 -904 1389
-1137 191 -176 582 -582 675 -702 314 -407 437 -814 471 -1570 21 -460 -68
-1146 -235 -1810 -163 -650 -580 -1734 -1030 -2678 -42 -90 -75 -166 -71 -169
14 -14 722 679 970 951 575 630 1002 1223 1468 2041 205 359 468 866 468 901
0 9 -40 103 -89 208 -266 573 -445 1026 -670 1701 -184 551 -405 1265 -562
1813 -24 83 -48 152 -54 152 -6 0 -65 -18 -130 -41 -170 -57 -363 -105 -485
-121 -65 -8 -202 -13 -360 -12 -230 1 -271 3 -415 28 -348 59 -507 101 -700
183 -185 78 -520 251 -728 376 -97 59 -181 107 -185 106 -4 0 9 -13 28 -29z"/>
<path d="M13720 4270 c-1125 -46 -2236 -168 -3325 -366 -2137 -389 -4268
-1065 -6190 -1965 -408 -190 -985 -491 -955 -497 8 -1 177 31 375 73 268 56
411 92 560 140 1682 538 3587 985 5190 1219 1330 194 2862 320 4695 387 1536
56 3757 -77 5450 -327 1806 -266 4378 -807 6614 -1390 136 -36 253 -63 259
-61 5 1 -32 30 -84 64 -1477 952 -3594 1701 -6168 2183 -1013 189 -2219 350
-3106 415 -121 9 -335 27 -475 40 -269 26 -691 57 -1025 76 -254 14 -1531 20
-1815 9z"/>
</g>
</svg>
