<?xml version="1.0" encoding="iso-8859-1"?>
<!-- Generator: Adobe Illustrator 19.0.0, SVG Export Plug-In . SVG Version: 6.00 Build 0)  -->
<svg version="1.1" id="Capa_1" xmlns="http://www.w3.org/2000/svg" xmlns:xlink="http://www.w3.org/1999/xlink" x="0px" y="0px"
	 viewBox="0 0 182.089 182.089" style="enable-background:new 0 0 182.089 182.089;" xml:space="preserve">
<g>
	<g>
		<g>
			<polygon style="fill:#FE6F48;" points="37.958,182.089 91.198,169.062 57.962,144.755 37.958,146.523 			"/>
			<g>
				<path style="fill:#FF9C4A;" d="M37.958,146.523c-10.273,0.486-18.853,8.262-18.853,17.783c0,9.52,8.58,17.295,18.853,17.783
					V146.523z"/>
				<path style="fill:#FE6F48;" d="M37.958,146.523c10.271,0.486,18.027,8.262,18.027,17.783c0,9.52-7.756,17.295-18.027,17.783
					V146.523z"/>
			</g>
			<g>
				<g>
					<path style="fill:#FDBEBD;" d="M47.898,168.808c0,5.285-4.656,9.568-9.94,9.568c-5.285,0-9.195-4.283-9.195-9.568
						c0-5.285,3.91-9.568,9.195-9.568C43.242,159.239,47.898,163.523,47.898,168.808z"/>
					<path style="fill:#FDBEBD;" d="M42.583,153.569c0,2.348-2.277,4.252-4.625,4.252c-2.35,0-3.881-1.904-3.881-4.252
						c0-2.35,1.531-4.254,3.881-4.254C40.305,149.316,42.583,151.22,42.583,153.569z"/>
					<g>
						<circle style="fill:#FDBEBD;" cx="27.699" cy="156.403" r="4.253"/>
						<circle style="fill:#FDBEBD;" cx="48.961" cy="156.403" r="4.252"/>
					</g>
				</g>
				<g>
					<path style="fill:#FFABAB;" d="M37.958,159.239c-0.17,0,0.166,0.018,0,0.025v19.086c0.166,0.008-0.17,0.025,0,0.025
						c5.284,0,9.94-4.283,9.94-9.568C47.898,163.523,43.242,159.239,37.958,159.239z"/>
					<path style="fill:#FFABAB;" d="M37.958,149.316c-0.172,0,0.166,0.031,0,0.051v8.404c0.166,0.02-0.172,0.051,0,0.051
						c2.348,0,4.625-1.904,4.625-4.252C42.583,151.22,40.305,149.316,37.958,149.316z"/>
					<g>
						<circle style="fill:#FFABAB;" cx="48.961" cy="156.403" r="4.252"/>
					</g>
				</g>
			</g>
		</g>
		<g>
			<polygon style="fill:#F35620;" points="142.23,182.089 88.577,169.062 121.813,144.755 142.23,146.523 			"/>
			<g>
				<path style="fill:#FF9C4A;" d="M144.421,146.523c-10.274,0.486-18.316,8.262-18.316,17.783c0,9.52,8.042,17.295,18.316,17.783
					V146.523z"/>
				<path style="fill:#FE6F48;" d="M144.421,146.523c10.273,0.486,18.564,8.262,18.564,17.783c0,9.52-8.291,17.295-18.564,17.783
					V146.523z"/>
			</g>
			<g>
				<g>
					<path style="fill:#FDBEBD;" d="M154.114,169.308c0,5.285-4.408,9.568-9.693,9.568c-5.285,0-9.443-4.283-9.443-9.568
						c0-5.285,4.158-9.568,9.443-9.568C149.706,159.739,154.114,164.023,154.114,169.308z"/>
					<path style="fill:#FDBEBD;" d="M148.797,154.069c0,2.348-2.029,4.252-4.377,4.252c-2.35,0-4.129-1.904-4.129-4.252
						c0-2.35,1.779-4.254,4.129-4.254C146.768,149.816,148.797,151.72,148.797,154.069z"/>
					<g>
						<circle style="fill:#FDBEBD;" cx="133.914" cy="156.903" r="4.253"/>
						<circle style="fill:#FDBEBD;" cx="155.176" cy="156.903" r="4.252"/>
					</g>
				</g>
				<g>
					<path style="fill:#FFABAB;" d="M144.421,159.739c-0.17,0,0.166,0.018,0,0.025v19.086c0.166,0.008-0.17,0.025,0,0.025
						c5.285,0,9.693-4.283,9.693-9.568C154.114,164.023,149.706,159.739,144.421,159.739z"/>
					<path style="fill:#FFABAB;" d="M144.421,149.816c-0.172,0,0.166,0.031,0,0.051v8.404c0.166,0.02-0.172,0.051,0,0.051
						c2.348,0,4.377-1.904,4.377-4.252C148.797,151.72,146.768,149.816,144.421,149.816z"/>
					<g>
						<circle style="fill:#FFABAB;" cx="155.176" cy="156.903" r="4.252"/>
					</g>
				</g>
			</g>
		</g>
	</g>
	<g>
		<g>
			<path style="fill:#FE6F48;" d="M89.544,82.478c-16.932,0.758-33.738,11.889-33.662,32.391l0.154,22.713
				c0.08,21.309,16.572,31.488,33.508,31.48V82.478z"/>
			<path style="fill:#F35620;" d="M89.544,82.478c16.938,0.629,33.434,11.635,33.512,32.137l0.152,22.711
				c0.08,21.311-16.727,31.615-33.664,31.736V82.478z"/>
		</g>
	</g>
	<g>
		<path style="fill:#FFE5B5;" d="M89.544,102.489c-13.609,0.828-24.428,14.014-24.428,30.158c0,16.145,10.818,29.332,24.428,30.158
			V102.489z"/>
		<path style="fill:#FFD5B3;" d="M89.546,102.489c13.608,0.828,24.428,14.014,24.428,30.158c0,16.145-10.819,29.332-24.428,30.158
			V102.489z"/>
	</g>
	<g>
		<g>
			<path style="fill:#FF9C4A;" d="M54.51,89.349c-10.273,0.486-18.314,8.262-18.314,17.783c0,9.52,8.041,17.297,18.314,17.783
				V89.349z"/>
			<path style="fill:#FE6F48;" d="M54.51,89.349c10.274,0.486,18.565,8.262,18.565,17.783c0,9.52-8.291,17.297-18.565,17.783V89.349
				z"/>
		</g>
		<g>
			<path style="fill:#FF9C4A;" d="M124.33,89.349c-10.272,0.486-18.314,8.262-18.314,17.783c0,9.52,8.042,17.297,18.314,17.783
				V89.349z"/>
			<path style="fill:#FE6F48;" d="M124.33,89.349c10.272,0.486,18.564,8.262,18.564,17.783c0,9.52-8.292,17.297-18.564,17.783
				V89.349z"/>
		</g>
		<g>
			<g>
				<path style="fill:#FDBEBD;" d="M64.204,111.808c0,5.285-4.408,9.568-9.693,9.568c-5.285,0-9.443-4.283-9.443-9.568
					c0-5.285,4.158-9.568,9.443-9.568C59.796,102.239,64.204,106.523,64.204,111.808z"/>
				<path style="fill:#FDBEBD;" d="M58.888,96.569c0,2.348-2.028,4.252-4.378,4.252c-2.349,0-4.127-1.904-4.127-4.252
					c0-2.35,1.778-4.254,4.127-4.254C56.86,92.316,58.888,94.22,58.888,96.569z"/>
				<g>
					<circle style="fill:#FDBEBD;" cx="44.004" cy="99.403" r="4.252"/>
					<circle style="fill:#FDBEBD;" cx="65.267" cy="99.403" r="4.253"/>
				</g>
			</g>
			<g>
				<path style="fill:#FFABAB;" d="M54.51,102.239c-0.168,0,0.167,0.018,0,0.025v19.086c0.167,0.008-0.168,0.025,0,0.025
					c5.285,0,9.693-4.283,9.693-9.568C64.204,106.523,59.796,102.239,54.51,102.239z"/>
				<path style="fill:#FFABAB;" d="M54.51,92.316c-0.171,0,0.166,0.031,0,0.051v8.404c0.166,0.02-0.171,0.051,0,0.051
					c2.35,0,4.378-1.904,4.378-4.252C58.888,94.22,56.86,92.316,54.51,92.316z"/>
				<g>
					<circle style="fill:#FFABAB;" cx="65.267" cy="99.403" r="4.253"/>
				</g>
			</g>
		</g>
		<g>
			<g>
				<path style="fill:#FDBEBD;" d="M134.023,111.808c0,5.285-4.409,9.568-9.693,9.568c-5.285,0-9.443-4.283-9.443-9.568
					c0-5.285,4.158-9.568,9.443-9.568C129.614,102.239,134.023,106.523,134.023,111.808z"/>
				<path style="fill:#FDBEBD;" d="M128.708,96.569c0,2.348-2.029,4.252-4.378,4.252c-2.349,0-4.128-1.904-4.128-4.252
					c0-2.35,1.779-4.254,4.128-4.254C126.678,92.316,128.708,94.22,128.708,96.569z"/>
				<g>
					<circle style="fill:#FDBEBD;" cx="113.823" cy="99.403" r="4.252"/>
					<circle style="fill:#FDBEBD;" cx="135.086" cy="99.403" r="4.253"/>
				</g>
			</g>
			<g>
				<path style="fill:#FFABAB;" d="M124.33,102.239c-0.169,0,0.167,0.018,0,0.025v19.086c0.167,0.008-0.169,0.025,0,0.025
					c5.284,0,9.693-4.283,9.693-9.568C134.023,106.523,129.614,102.239,124.33,102.239z"/>
				<path style="fill:#FFABAB;" d="M124.33,92.316c-0.171,0,0.166,0.031,0,0.051v8.404c0.166,0.02-0.171,0.051,0,0.051
					c2.349,0,4.378-1.904,4.378-4.252C128.708,94.22,126.678,92.316,124.33,92.316z"/>
				<g>
					<circle style="fill:#FFABAB;" cx="135.086" cy="99.403" r="4.253"/>
				</g>
			</g>
		</g>
	</g>
	<g>
		<g>
			<path style="fill:#F4832F;" d="M37.856,0.015c-2.206,37.497,8.822,39.703,8.822,39.703l27.572-24.263
				C57.708-1.088,37.856,0.015,37.856,0.015z"/>
			<path style="fill:#F35620;" d="M141.233,0.015c2.206,37.497-8.822,39.703-8.822,39.703l-27.571-24.263
				C121.382-1.088,141.233,0.015,141.233,0.015z"/>
		</g>
		<g>
			<path style="fill:#FF9C4A;" d="M89.546,9.95C63.93,10.141,43.041,30.139,43.041,54.792c0,24.653,20.89,44.651,46.505,44.842V9.95
				z"/>
			<path style="fill:#FE6F48;" d="M89.546,9.95c25.615,0.191,46.504,20.189,46.504,44.842c0,24.653-20.889,44.651-46.504,44.842
				V9.95z"/>
		</g>
		<g>
			<path style="fill:#211A18;" d="M76.473,50.637c0.004,1.967-1.584,3.565-3.551,3.569l0,0c-1.967,0.007-3.566-1.584-3.572-3.55
				l-0.018-6.233c-0.006-1.967,1.586-3.566,3.553-3.572l0,0c1.967-0.004,3.564,1.586,3.57,3.553L76.473,50.637z"/>
			<path style="fill:#211A18;" d="M109.758,50.545c0.006,1.967-1.586,3.566-3.552,3.571l0,0c-1.968,0.006-3.565-1.585-3.573-3.551
				l-0.017-6.232c-0.005-1.968,1.585-3.566,3.552-3.571l0,0c1.969-0.007,3.568,1.583,3.572,3.55L109.758,50.545z"/>
		</g>
		<g>
			<path style="fill:#FFE5B5;" d="M89.546,56.998c-13.77,0.071-24.998,7.612-24.998,16.905c0,9.295,11.228,16.834,24.998,16.907
				V56.998z"/>
			<path style="fill:#FFD5B3;" d="M89.546,56.998c13.77,0.071,24.998,7.612,24.998,16.905c0,9.295-11.229,16.834-24.998,16.907
				V56.998z"/>
		</g>
		<g>
			<path style="fill:#42403F;" d="M89.546,52.953c-4.854,0.176-8.712,2.972-8.712,6.396c0,3.425,3.858,6.222,8.712,6.396V52.953z"/>
			<path style="fill:#232221;" d="M89.546,52.953c4.854,0.176,8.711,2.972,8.711,6.396c0,3.425-3.857,6.222-8.711,6.396V52.953z"/>
		</g>
	</g>
</g>
<g>
</g>
<g>
</g>
<g>
</g>
<g>
</g>
<g>
</g>
<g>
</g>
<g>
</g>
<g>
</g>
<g>
</g>
<g>
</g>
<g>
</g>
<g>
</g>
<g>
</g>
<g>
</g>
<g>
</g>
</svg>
